<svg class="animated" id="freepik_stories-kitsune" xmlns="http://www.w3.org/2000/svg" viewBox="0 0 500 500" version="1.1" xmlns:xlink="http://www.w3.org/1999/xlink" xmlns:svgjs="http://svgjs.com/svgjs"><style>svg#freepik_stories-kitsune:not(.animated) .animable {opacity: 0;}svg#freepik_stories-kitsune.animated #freepik--background-simple--inject-130 {animation: 1s 1 forwards cubic-bezier(.36,-0.01,.5,1.38) slideDown;animation-delay: 0s;}svg#freepik_stories-kitsune.animated #freepik--Mandala--inject-130 {animation: 1s 1 forwards cubic-bezier(.36,-0.01,.5,1.38) lightSpeedLeft;animation-delay: 0s;}svg#freepik_stories-kitsune.animated #freepik--Kitsune--inject-130 {animation: 1s 1 forwards cubic-bezier(.36,-0.01,.5,1.38) slideLeft;animation-delay: 0s;}            @keyframes slideDown {                0% {                    opacity: 0;                    transform: translateY(-30px);                }                100% {                    opacity: 1;                    transform: translateY(0);                }            }                    @keyframes lightSpeedLeft {              from {                transform: translate3d(-50%, 0, 0) skewX(20deg);                opacity: 0;              }              60% {                transform: skewX(-10deg);                opacity: 1;              }              80% {                transform: skewX(2deg);              }              to {                opacity: 1;                transform: translate3d(0, 0, 0);              }            }                    @keyframes slideLeft {                0% {                    opacity: 0;                    transform: translateX(-30px);                }                100% {                    opacity: 1;                    transform: translateX(0);                }            }        </style><g id="freepik--background-simple--inject-130" class="animable" style="transform-origin: 251.827px 253.823px;"><path d="M188.53,21.77c-3.28.57-6.52,1.21-9.74,1.94C135.91,33.47,97.22,61.46,71.47,92.93a223.1,223.1,0,0,0-28.13,44.34C-6,239.49,66.51,309.63,74.88,351.29s25.19,107,110.5,130.26c64.85,17.68,139.8,5.05,194.45-47.58a202.14,202.14,0,0,0,17.29-18.87A229.39,229.39,0,0,0,424.51,372c22.88-46.42,27.79-89,14.31-137.28-3.13-11.22-7.18-22.71-3.08-34.33,3-8.44,9.47-15.13,14-3.55,5.32,13.6,29.6,8.84,27.51-21.59-3.48-50.82-43.76-85.7-88.92-111.55C332.9,32,256.25,10.09,188.53,21.77Z" style="fill: #5F5074; transform-origin: 251.827px 253.823px;" id="elpu5wl6yaura" class="animable"></path><g id="elh895ompvqtw"><path d="M188.53,21.77c-3.28.57-6.52,1.21-9.74,1.94C135.91,33.47,97.22,61.46,71.47,92.93a223.1,223.1,0,0,0-28.13,44.34C-6,239.49,66.51,309.63,74.88,351.29s25.19,107,110.5,130.26c64.85,17.68,139.8,5.05,194.45-47.58a202.14,202.14,0,0,0,17.29-18.87A229.39,229.39,0,0,0,424.51,372c22.88-46.42,27.79-89,14.31-137.28-3.13-11.22-7.18-22.71-3.08-34.33,3-8.44,9.47-15.13,14-3.55,5.32,13.6,29.6,8.84,27.51-21.59-3.48-50.82-43.76-85.7-88.92-111.55C332.9,32,256.25,10.09,188.53,21.77Z" style="fill: rgb(255, 255, 255); opacity: 0.8; transform-origin: 251.827px 253.823px;" class="animable" id="elnh18mw16po"></path></g></g><g id="freepik--Mandala--inject-130" class="animable" style="transform-origin: 252.35px 244.56px;"><g id="el65qlpajii3o"><g style="opacity: 0.3; transform-origin: 160.856px 213.574px;" class="animable" id="el3xd2aphg0v4"><path d="M168.86,195.16a31.74,31.74,0,0,0-9.49-1.56,52.54,52.54,0,0,1,35-21.43,52.37,52.37,0,0,0-67,51.84,31.73,31.73,0,1,0,41.5-28.85Zm-9.61,44.35a13.13,13.13,0,1,1,13.14-13.13A13.13,13.13,0,0,1,159.25,239.51Z" id="elde2sh73fwop" class="animable" style="transform-origin: 160.856px 213.574px;"></path></g></g><g id="elx100iow49m"><g style="opacity: 0.3; transform-origin: 195.369px 319.209px;" class="animable" id="elrhmuh4p9tq"><path d="M178.2,309.7a31.75,31.75,0,0,0-4.41,8.55,52.46,52.46,0,0,1-9.56-39.91,52.36,52.36,0,0,0,28.59,79.75A31.73,31.73,0,1,0,178.2,309.7Zm39.22,22.85A13.13,13.13,0,1,1,209,316,13.14,13.14,0,0,1,217.42,332.55Z" id="elkma2uby9x78" class="animable" style="transform-origin: 195.369px 319.209px;"></path></g></g><g id="el3t7x97yb0aj"><g style="opacity: 0.3; transform-origin: 301.607px 322.998px;" class="animable" id="el76rnms8c9zv"><path d="M290,336.22a31.57,31.57,0,0,0,6.76,6.84,52.56,52.56,0,0,1-40.92-3.24,52.37,52.37,0,0,0,84.69-2.55,31.73,31.73,0,1,0-50.53-1ZM323.87,306a13.13,13.13,0,1,1-18.34,2.91A13.13,13.13,0,0,1,323.87,306Z" id="elsg5bh8ion5" class="animable" style="transform-origin: 301.607px 322.998px;"></path></g></g><g id="el0vhhe3q8u3yf"><g style="opacity: 0.3; transform-origin: 342.81px 223.908px;" class="animable" id="elml8l73cc4x"><path d="M349.8,238.06a31.55,31.55,0,0,0,8.6-4.32,52.57,52.57,0,0,1-15.73,37.92,52.36,52.36,0,0,0,23.74-81.34,31.73,31.73,0,1,0-16.61,47.74Zm-18.3-41.53a13.13,13.13,0,1,1-2.9,18.34A13.13,13.13,0,0,1,331.5,196.53Z" id="elayjr82uatss" class="animable" style="transform-origin: 342.81px 223.908px;"></path></g></g><g id="elwnrl6fslnob"><g style="opacity: 0.3; transform-origin: 258.065px 149.942px;" class="animable" id="eli64u6iyzy6g"><path d="M274.92,150.88a31.47,31.47,0,0,0-1.46-9.51,52.53,52.53,0,0,1,31.2,26.68,52.37,52.37,0,0,0-70-47.72,31.73,31.73,0,1,0,40.27,30.55Zm-45.16,4.57a13.13,13.13,0,1,1,16.55,8.43A13.14,13.14,0,0,1,229.76,155.45Z" id="elceu1jrmnq19" class="animable" style="transform-origin: 258.065px 149.942px;"></path></g></g><g id="elkv2panuirq"><path d="M252.35,457.76c-117.56,0-213.2-95.64-213.2-213.2s95.64-213.2,213.2-213.2,213.2,95.64,213.2,213.2S369.91,457.76,252.35,457.76Zm0-425.4c-117,0-212.2,95.19-212.2,212.2s95.2,212.2,212.2,212.2,212.2-95.19,212.2-212.2S369.36,32.36,252.35,32.36Z" style="opacity: 0.3; transform-origin: 252.35px 244.56px;" class="animable" id="el3gnqv2j37hj"></path></g><g id="ela43dwz4098h"><path d="M252.35,449C139.62,449,47.91,357.29,47.91,244.56S139.62,40.12,252.35,40.12s204.44,91.71,204.44,204.44S365.08,449,252.35,449Zm0-407.88c-112.17,0-203.44,91.26-203.44,203.44S140.18,448,252.35,448s203.44-91.26,203.44-203.44S364.53,41.12,252.35,41.12Z" style="opacity: 0.3; transform-origin: 252.35px 244.56px;" class="animable" id="eldge9errqluw"></path></g><g id="elmav9forqnaa"><path d="M252.35,382.6c-76.11,0-138-61.93-138-138s61.93-138,138-138,138,61.92,138,138S328.47,382.6,252.35,382.6Zm0-275.08c-75.56,0-137,61.48-137,137s61.48,137,137,137,137-61.48,137-137S327.92,107.52,252.35,107.52Z" style="opacity: 0.3; transform-origin: 252.35px 244.6px;" class="animable" id="elihuo8y3686b"></path></g><g id="elhx8jw3re3o"><path d="M252.4,102.22a9.12,9.12,0,0,1-9.11-9.11c0-3.14,2-6.37,3.43-8.53a26.5,26.5,0,0,1,3-3.36c1.93-2,3.74-3.83,2.86-4.86a10.35,10.35,0,0,0-2.44-1.79c-1.83-1.1-3.91-2.34-3.46-4.71.38-2,2.13-3,3.68-3.81,1.06-.6,2.06-1.15,2.27-1.87a2.47,2.47,0,0,0-.63-2.32,4,4,0,0,1-.87-2c-.17-1.86,1.57-3.47,1.64-3.53l.91-.83-.07,1.23a5.58,5.58,0,0,0,1.06,3.56c1.15,1.29,2.9,3.23,2,5.84a6.63,6.63,0,0,1-2.26,2.72c-1.15,1-1.48,1.35-1.22,1.73a10.85,10.85,0,0,0,1.92,1.68c1.88,1.46,4.45,3.45,5,5.92a4.69,4.69,0,0,1-1,4.38c-.33.46-.52.73-.49,1a9.76,9.76,0,0,0,1.24,3.27A13.8,13.8,0,0,1,261,89.54a10.74,10.74,0,0,1,.28,1.25h0A11.14,11.14,0,0,1,261,95.5,8.93,8.93,0,0,1,252.4,102.22ZM252.64,58a2.86,2.86,0,0,0-.56,1.78,3.12,3.12,0,0,0,.7,1.47,3.45,3.45,0,0,1,.77,3.16c-.32,1.12-1.5,1.77-2.74,2.47-1.43.79-2.9,1.62-3.19,3.13s.93,2.43,3,3.67a10.87,10.87,0,0,1,2.69,2c1.48,1.73-.65,3.9-2.9,6.21a25.91,25.91,0,0,0-2.86,3.23c-1.39,2-3.25,5.1-3.25,8a8.12,8.12,0,0,0,8.11,8.11,7.86,7.86,0,0,0,7.66-6,10.16,10.16,0,0,0,.23-4.29h0a11,11,0,0,0-.25-1.14A12.81,12.81,0,0,0,259,87.35a10.64,10.64,0,0,1-1.34-3.62A2.4,2.4,0,0,1,258.3,82a3.78,3.78,0,0,0,.81-3.58c-.46-2.11-2.86-4-4.62-5.34a11.26,11.26,0,0,1-2.13-1.9c-.83-1.18.35-2.18,1.39-3.06a6,6,0,0,0,2-2.28c.63-1.9-.45-3.32-1.83-4.85A5.57,5.57,0,0,1,252.64,58Z" style="opacity: 0.3; transform-origin: 252.351px 78.86px;" class="animable" id="elcd2whv1xn1"></path></g><g id="eln8arw9hc3no"><path d="M251.07,435.6l.07-1.22a5.69,5.69,0,0,0-1.06-3.57c-1.16-1.28-2.9-3.22-2-5.84a6.7,6.7,0,0,1,2.26-2.72c1.14-1,1.48-1.35,1.22-1.73a11.43,11.43,0,0,0-1.93-1.68c-1.87-1.46-4.44-3.45-5-5.92a4.74,4.74,0,0,1,1-4.38c.34-.45.53-.72.5-1a10,10,0,0,0-1.24-3.26,14.49,14.49,0,0,1-1.16-2.65c-.11-.41-.2-.84-.27-1.26h0a11.3,11.3,0,0,1,.25-4.71,8.94,8.94,0,0,1,8.63-6.72h0a9.12,9.12,0,0,1,9.11,9.11c0,3.14-2,6.37-3.43,8.53a27.37,27.37,0,0,1-3,3.37c-1.93,2-3.75,3.82-2.86,4.85a10.08,10.08,0,0,0,2.44,1.79c1.83,1.1,3.91,2.35,3.45,4.71-.37,2-2.13,2.95-3.68,3.82-1,.59-2.06,1.15-2.26,1.87a2.43,2.43,0,0,0,.63,2.31,4.1,4.1,0,0,1,.87,2c.17,1.85-1.57,3.46-1.65,3.53Zm1.24-45.67a7.85,7.85,0,0,0-7.66,6,10.11,10.11,0,0,0-.23,4.28h0a9.06,9.06,0,0,0,.25,1.15,14,14,0,0,0,1.07,2.46,10.53,10.53,0,0,1,1.35,3.61,2.44,2.44,0,0,1-.68,1.72,3.75,3.75,0,0,0-.81,3.57c.46,2.12,2.86,4,4.62,5.34a10.83,10.83,0,0,1,2.12,1.9c.84,1.19-.34,2.18-1.39,3.06a6,6,0,0,0-1.95,2.28c-.64,1.9.45,3.32,1.82,4.85a5.51,5.51,0,0,1,1.25,3,2.89,2.89,0,0,0,.55-1.77,3.17,3.17,0,0,0-.69-1.48,3.41,3.41,0,0,1-.77-3.16c.32-1.11,1.49-1.77,2.74-2.47,1.42-.79,2.89-1.61,3.18-3.12s-.93-2.44-3-3.67a10.9,10.9,0,0,1-2.68-2c-1.48-1.73.65-3.9,2.9-6.2a26.41,26.41,0,0,0,2.85-3.23c1.4-2.05,3.26-5.11,3.26-8a8.12,8.12,0,0,0-8.11-8.11Z" style="opacity: 0.3; transform-origin: 252.385px 412.27px;" class="animable" id="elys5g4rynbkd"></path></g><g id="elvu1r97ph0fq"><path d="M405.37,254.64a11.09,11.09,0,0,1-2.94-.39,8.94,8.94,0,0,1-6.72-8.63,9.12,9.12,0,0,1,9.11-9.11c3.14,0,6.37,2,8.52,3.43a26.66,26.66,0,0,1,3.37,3c2,1.93,3.82,3.75,4.86,2.86a10.63,10.63,0,0,0,1.79-2.44c1.1-1.83,2.35-3.91,4.71-3.45,2,.37,2.95,2.13,3.81,3.67.6,1.06,1.15,2.07,1.87,2.27a2.45,2.45,0,0,0,2.32-.63,4.07,4.07,0,0,1,1.95-.87,4.94,4.94,0,0,1,3.53,1.65l.83.9-1.23-.07a5.69,5.69,0,0,0-3.57,1.06c-1.28,1.16-3.22,2.9-5.83,2a6.72,6.72,0,0,1-2.73-2.26c-1-1.14-1.35-1.48-1.72-1.22a11,11,0,0,0-1.68,1.93c-1.46,1.87-3.45,4.44-5.92,5a4.72,4.72,0,0,1-4.38-1c-.46-.34-.73-.54-1-.5a10,10,0,0,0-3.27,1.24,14.49,14.49,0,0,1-2.65,1.16,12.79,12.79,0,0,1-1.26.27h0A11.5,11.5,0,0,1,405.37,254.64Zm-.55-17.13a8.12,8.12,0,0,0-8.11,8.11,7.85,7.85,0,0,0,6,7.66,10.15,10.15,0,0,0,4.29.23h0a8.92,8.92,0,0,0,1.14-.25,13.4,13.4,0,0,0,2.46-1.07,10.46,10.46,0,0,1,3.62-1.35,2.42,2.42,0,0,1,1.71.68,3.78,3.78,0,0,0,3.58.81c2.11-.46,4-2.86,5.34-4.62a10.83,10.83,0,0,1,1.9-2.12c1.19-.84,2.18.34,3.06,1.39a6,6,0,0,0,2.28,2c1.9.64,3.32-.45,4.85-1.82a5.51,5.51,0,0,1,3-1.25,2.83,2.83,0,0,0-1.78-.55,3.14,3.14,0,0,0-1.47.69,3.42,3.42,0,0,1-3.16.77c-1.12-.32-1.77-1.49-2.47-2.74-.79-1.42-1.62-2.89-3.13-3.18s-2.43.93-3.67,3a10.63,10.63,0,0,1-2,2.68c-1.73,1.49-3.9-.65-6.21-2.9a25,25,0,0,0-3.23-2.85C410.73,239.37,407.68,237.51,404.82,237.51Z" style="opacity: 0.3; transform-origin: 419.045px 245.575px;" class="animable" id="el7fa5equq4z5"></path></g><g id="elu0nej4bvf5"><path d="M99.89,254.64c-3.14,0-6.37-2-8.53-3.43a26.56,26.56,0,0,1-3.37-3c-2-1.93-3.82-3.75-4.85-2.86a10.08,10.08,0,0,0-1.79,2.44c-1.1,1.83-2.35,3.9-4.72,3.46-2-.38-2.94-2.13-3.81-3.68-.59-1.06-1.15-2.06-1.87-2.27a2.46,2.46,0,0,0-2.31.63,4,4,0,0,1-2,.87c-1.86.18-3.46-1.57-3.53-1.64l-.82-.91,1.22.07a5.61,5.61,0,0,0,3.57-1.06c1.28-1.15,3.22-2.9,5.83-2a6.66,6.66,0,0,1,2.73,2.26c1,1.15,1.35,1.48,1.73,1.22a11.27,11.27,0,0,0,1.68-1.92c1.45-1.88,3.45-4.45,5.92-5a4.72,4.72,0,0,1,4.38,1c.45.33.72.52,1,.49a9.79,9.79,0,0,0,3.26-1.24,13.8,13.8,0,0,1,2.65-1.15,10.9,10.9,0,0,1,1.26-.28,11.14,11.14,0,0,1,4.71.26,8.93,8.93,0,0,1,6.72,8.62A9.12,9.12,0,0,1,99.89,254.64Zm-16.14-10.5c1.48,0,3.17,1.66,4.94,3.39a26.41,26.41,0,0,0,3.23,2.85c2,1.4,5.11,3.26,8,3.26a8.12,8.12,0,0,0,8.11-8.11,7.86,7.86,0,0,0-6-7.66,10.11,10.11,0,0,0-4.28-.23h0a11.21,11.21,0,0,0-1.15.25A13.37,13.37,0,0,0,94.12,239a10.51,10.51,0,0,1-3.61,1.34,2.43,2.43,0,0,1-1.72-.68,3.75,3.75,0,0,0-3.57-.81c-2.12.46-4,2.86-5.34,4.62a11.26,11.26,0,0,1-1.9,2.13c-1.19.83-2.18-.35-3.06-1.39a6,6,0,0,0-2.28-2c-1.9-.63-3.32.45-4.85,1.83a5.57,5.57,0,0,1-3,1.24,2.83,2.83,0,0,0,1.77.56,3.19,3.19,0,0,0,1.48-.7,3.44,3.44,0,0,1,3.16-.77c1.11.32,1.77,1.5,2.47,2.74.79,1.43,1.61,2.9,3.12,3.19s2.44-.93,3.67-3a10.9,10.9,0,0,1,2-2.69A1.9,1.9,0,0,1,83.75,244.14Z" style="opacity: 0.3; transform-origin: 85.62px 245.57px;" class="animable" id="elfvdrjng357o"></path></g><g id="el7fq0qogvf5"><path d="M360,146.83a8.76,8.76,0,0,1-6.24-2.59,9.12,9.12,0,0,1,0-12.88c2.22-2.22,5.89-3.12,8.46-3.61a26.55,26.55,0,0,1,4.47-.28c2.75,0,5.35-.06,5.46-1.41a10.2,10.2,0,0,0-.46-3c-.52-2.07-1.11-4.42.89-5.77,1.65-1.13,3.59-.58,5.29-.1,1.17.33,2.28.65,2.93.28a2.44,2.44,0,0,0,1.19-2.08,4.05,4.05,0,0,1,.77-2c1.19-1.43,3.56-1.34,3.66-1.33l1.22.06-.92.81a5.69,5.69,0,0,0-1.77,3.28c-.09,1.72-.23,4.33-2.69,5.56a6.82,6.82,0,0,1-3.53.33c-1.48-.13-2-.1-2.08.36a11.12,11.12,0,0,0,.17,2.55c.3,2.35.71,5.58-.66,7.7a4.75,4.75,0,0,1-3.79,2.41c-.56.08-.88.14-1.06.36a9.5,9.5,0,0,0-1.43,3.19,14.1,14.1,0,0,1-1.06,2.68,12.59,12.59,0,0,1-.7,1.09h0a11.23,11.23,0,0,1-3.51,3.15A9.36,9.36,0,0,1,360,146.83Zm14.86-29.2a3,3,0,0,0-1.72.48c-1.32.9-1.06,2.38-.48,4.71a10.91,10.91,0,0,1,.48,3.31c-.17,2.27-3.21,2.3-6.44,2.34a25.37,25.37,0,0,0-4.3.27c-2.43.46-5.91,1.3-7.93,3.33a8.11,8.11,0,0,0,0,11.46,7.86,7.86,0,0,0,9.65,1.19,10.16,10.16,0,0,0,3.19-2.87,10.43,10.43,0,0,0,.64-1,14,14,0,0,0,1-2.49,10.59,10.59,0,0,1,1.61-3.51,2.36,2.36,0,0,1,1.69-.73,3.76,3.76,0,0,0,3.1-2c1.17-1.82.79-4.83.51-7a11.19,11.19,0,0,1-.16-2.85c.25-1.43,1.79-1.29,3.15-1.18a5.92,5.92,0,0,0,3-.23c1.8-.89,2-2.67,2.14-4.72a5.54,5.54,0,0,1,1.22-3,3,3,0,0,0-1.65.86,3.26,3.26,0,0,0-.55,1.54,3.41,3.41,0,0,1-1.69,2.78c-1,.56-2.31.19-3.68-.2A10.5,10.5,0,0,0,374.85,117.63Z" style="opacity: 0.3; transform-origin: 369.369px 129.443px;" class="animable" id="el3hzc0u9qvop"></path></g><g id="el7pk02uj11mq"><path d="M118.45,379.1h-.15l-1.22,0,.91-.82a5.64,5.64,0,0,0,1.78-3.27c.09-1.73.22-4.33,2.68-5.56a6.63,6.63,0,0,1,3.53-.33c1.49.12,2,.09,2.08-.36a11.1,11.1,0,0,0-.17-2.55c-.3-2.36-.7-5.58.66-7.71a4.72,4.72,0,0,1,3.8-2.4c.56-.09.88-.14,1.06-.37a9.85,9.85,0,0,0,1.43-3.18,13.94,13.94,0,0,1,1.06-2.69,10.59,10.59,0,0,1,.7-1.09h0a11.12,11.12,0,0,1,3.51-3.15A8.94,8.94,0,0,1,151,346.91a9.1,9.1,0,0,1,0,12.88c-2.22,2.22-5.89,3.12-8.45,3.61a27.81,27.81,0,0,1-4.48.29c-2.75,0-5.35.05-5.45,1.41a10.18,10.18,0,0,0,.46,3c.52,2.07,1.1,4.42-.89,5.78-1.66,1.12-3.59.58-5.3.09-1.17-.33-2.27-.65-2.92-.28a2.41,2.41,0,0,0-1.19,2.08,4.05,4.05,0,0,1-.77,2A4.8,4.8,0,0,1,118.45,379.1Zm6.09-9.12a3.78,3.78,0,0,0-1.64.3c-1.79.9-2,2.67-2.14,4.72a5.61,5.61,0,0,1-1.21,3,2.86,2.86,0,0,0,1.64-.86,3.09,3.09,0,0,0,.55-1.54,3.43,3.43,0,0,1,1.69-2.77c1-.57,2.31-.2,3.69.19,1.56.45,3.19.9,4.46,0s1.06-2.38.48-4.71a10.89,10.89,0,0,1-.49-3.31c.18-2.27,3.22-2.3,6.44-2.33a26.38,26.38,0,0,0,4.3-.27c2.44-.46,5.91-1.31,7.94-3.33a8.12,8.12,0,0,0,0-11.47,7.86,7.86,0,0,0-9.65-1.19,10.08,10.08,0,0,0-3.83,3.86,13.15,13.15,0,0,0-1,2.5,10.75,10.75,0,0,1-1.6,3.51,2.47,2.47,0,0,1-1.7.73,3.8,3.8,0,0,0-3.1,2c-1.17,1.82-.78,4.84-.5,7a11.68,11.68,0,0,1,.16,2.85c-.26,1.43-1.8,1.3-3.15,1.18C125.46,370,125,370,124.54,370Z" style="opacity: 0.3; transform-origin: 135.375px 361.722px;" class="animable" id="el6810pztyp1w"></path></g><g id="elzffnj8m041o"><path d="M144.58,146.84a9.08,9.08,0,0,1-6.44-2.66c-2.22-2.22-3.12-5.89-3.61-8.46a27.68,27.68,0,0,1-.29-4.47c0-2.76-.05-5.35-1.41-5.46a10.18,10.18,0,0,0-3,.46c-2.07.52-4.42,1.11-5.78-.89-1.12-1.65-.58-3.59-.09-5.29.33-1.17.64-2.27.28-2.93a2.44,2.44,0,0,0-2.08-1.19,4.05,4.05,0,0,1-2-.77c-1.43-1.19-1.34-3.56-1.33-3.66l0-1.22.82.92A5.64,5.64,0,0,0,123,113c1.73.09,4.33.23,5.56,2.69a6.62,6.62,0,0,1,.33,3.53c-.12,1.49-.09,2,.36,2.08a11.7,11.7,0,0,0,2.55-.17c2.36-.3,5.58-.71,7.71.66a4.7,4.7,0,0,1,2.4,3.79c.09.56.14.88.37,1.06a9.45,9.45,0,0,0,3.18,1.43,13.94,13.94,0,0,1,2.69,1.06,12.59,12.59,0,0,1,1.09.7,11.23,11.23,0,0,1,3.15,3.51A9,9,0,0,1,151,144.18,9.11,9.11,0,0,1,144.58,146.84Zm-12-22.06h.36c2.27.18,2.3,3.22,2.33,6.45a26.45,26.45,0,0,0,.27,4.3c.46,2.43,1.31,5.91,3.33,7.93a8.12,8.12,0,0,0,11.47,0,7.86,7.86,0,0,0,1.19-9.65,10.41,10.41,0,0,0-2.87-3.19h0c-.32-.23-.65-.44-1-.64a13.84,13.84,0,0,0-2.5-1,10.77,10.77,0,0,1-3.51-1.61,2.45,2.45,0,0,1-.73-1.69,3.77,3.77,0,0,0-2-3.1c-1.82-1.17-4.84-.79-7-.51a11.19,11.19,0,0,1-2.85.16c-1.43-.25-1.3-1.79-1.18-3.15a6,6,0,0,0-.23-3c-.9-1.8-2.67-2-4.72-2.14a5.62,5.62,0,0,1-3-1.22,2.88,2.88,0,0,0,.86,1.65,3.08,3.08,0,0,0,1.53.54,3.43,3.43,0,0,1,2.78,1.7c.57,1,.2,2.31-.19,3.68-.44,1.57-.9,3.19,0,4.46s2.38,1.06,4.71.48A13.11,13.11,0,0,1,132.55,124.78Z" style="opacity: 0.3; transform-origin: 136.214px 128.57px;" class="animable" id="elzggt05s6cig"></path></g><g id="elj0h3rvwvb7i"><path d="M385.81,380.85l-.81-.91a5.68,5.68,0,0,0-3.28-1.78c-1.72-.09-4.33-.22-5.56-2.69a6.79,6.79,0,0,1-.33-3.52c.13-1.49.1-2-.36-2.08a11.12,11.12,0,0,0-2.55.17c-2.35.29-5.58.7-7.7-.66a4.76,4.76,0,0,1-2.41-3.8c-.08-.56-.14-.88-.36-1.06a9.91,9.91,0,0,0-3.19-1.43,14.46,14.46,0,0,1-2.69-1.06,11.66,11.66,0,0,1-1.08-.7h0a11.31,11.31,0,0,1-3.15-3.5A8.94,8.94,0,0,1,353.69,347a9.1,9.1,0,0,1,12.88,0c2.22,2.22,3.12,5.88,3.61,8.45a26.74,26.74,0,0,1,.28,4.48c0,2.75.06,5.35,1.41,5.45a10.25,10.25,0,0,0,3-.46c2.07-.52,4.42-1.11,5.77.89,1.13,1.66.58,3.59.1,5.3-.33,1.16-.65,2.27-.28,2.92a2.47,2.47,0,0,0,2.08,1.2,3.94,3.94,0,0,1,2,.76c1.43,1.19,1.34,3.56,1.33,3.66Zm-10.78-12a4,4,0,0,1,.62,0c1.43.26,1.3,1.79,1.18,3.15a6,6,0,0,0,.23,3c.89,1.79,2.67,2,4.72,2.14a5.61,5.61,0,0,1,3,1.21,2.92,2.92,0,0,0-.86-1.64,3.16,3.16,0,0,0-1.54-.55,3.46,3.46,0,0,1-2.78-1.69c-.56-1-.19-2.31.2-3.69.44-1.56.9-3.19,0-4.46s-2.38-1.06-4.71-.48a10.94,10.94,0,0,1-3.31.49c-2.27-.18-2.3-3.22-2.34-6.44a25.31,25.31,0,0,0-.27-4.3c-.46-2.44-1.3-5.91-3.33-7.94a8.11,8.11,0,0,0-11.46,0,7.86,7.86,0,0,0-1.19,9.65,10.08,10.08,0,0,0,3.86,3.83,13.32,13.32,0,0,0,2.49,1,10.57,10.57,0,0,1,3.51,1.6,2.39,2.39,0,0,1,.73,1.7,3.79,3.79,0,0,0,2,3.1c1.82,1.17,4.83.78,7,.5A19.59,19.59,0,0,1,375,368.84Z" style="opacity: 0.3; transform-origin: 368.488px 362.59px;" class="animable" id="elet69asunsj5"></path></g><g id="elherr6a1s6o"><g style="opacity: 0.3; transform-origin: 252.635px 244.555px;" class="animable" id="elqd42dq7fuji"><g id="elywyixplglt"><rect x="93.52" y="147.41" width="1" height="66.4" class="animable" style="transform-origin: 94.02px 180.61px; transform: rotate(-68.04deg);" id="el6qo9pzokrl6"></rect></g><g id="el925r3ypda5m"><rect x="410.75" y="275.3" width="1" height="66.4" class="animable" style="transform-origin: 411.25px 308.5px; transform: rotate(-68.04deg);" id="el3xcx51z58nu"></rect></g><g id="elvgurt23i5z"><rect x="185.19" y="53.98" width="1" height="66.4" class="animable" style="transform-origin: 185.69px 87.18px; transform: rotate(-23.04deg);" id="el33a9w8om201"></rect></g><g id="elg8rmcsl8syb"><rect x="319.07" y="368.73" width="1" height="66.4" class="animable" style="transform-origin: 319.57px 401.93px; transform: rotate(-23.04deg);" id="elyfnjmsxlzcf"></rect></g><g id="el6rnxozij718"><rect x="300.44" y="93.72" width="66.4" height="1" class="animable" style="transform-origin: 333.64px 94.22px; transform: rotate(-61.68deg);" id="elvjagac8p4e"></rect></g><g id="el6zopl3u8fo"><rect x="138.22" y="394.84" width="66.4" height="1" class="animable" style="transform-origin: 171.42px 395.34px; transform: rotate(-61.68deg);" id="elm1jonmhmjh9"></rect></g><g id="el3pesmridfds"><rect x="62.06" y="311" width="66.4" height="1" class="animable" style="transform-origin: 95.26px 311.5px; transform: rotate(-23.06deg);" id="eloypvfycv11h"></rect></g><g id="elr0ty4eo779h"><rect x="376.8" y="177.12" width="66.4" height="1" class="animable" style="transform-origin: 410px 177.62px; transform: rotate(-23.01deg);" id="ela6hue9n25t"></rect></g></g></g></g><g id="freepik--Kitsune--inject-130" class="animable" style="transform-origin: 237.018px 253.362px;"><path d="M220.09,220.31s12.89,26,29.07,42.29c15.62,15.69,30.41,35.39,42.68,53.88,11.85,17.86,20.64,38.9,18.6,60.24-1.8,18.85-11.91,36.06-24.56,50.15-22.14,24.66-53.43,41.64-86.49,43.71-17.89,1.13-36.37-2.2-51.65-11.56-40.13-24.56-46.11-75.69-54.12-117.62-1.61-8.45-3.45-17-7.78-24.47C77.18,302,60.21,294.34,44.05,288.37c24.31-1.36,48.61,6.57,69.08,19.76s37.3,31.44,51.27,51.39c9.62,13.72,20.41,30.07,37.66,34.4,18.07,4.55,38.55-3.14,50.15-17.46,15.21-18.78,15.94-47,8.74-69.09-9.69-29.76-31.15-52.9-36.76-66.64s-13.56-30.4-13.56-30.4" style="fill: #5F5074; transform-origin: 177.393px 340.561px;" id="elo3n9kr9y6m8" class="animable"></path><path d="M192.67,471.29c-13,0-29.77-2.4-45.19-11.84-36.84-22.55-45-67.33-52.28-106.85-.69-3.75-1.37-7.46-2.07-11.11-1.65-8.66-3.49-17-7.72-24.31-8.48-14.56-25-22.23-41.53-28.34L41.62,288l2.4-.13c22.91-1.29,47.55,5.76,69.38,19.84,18.55,12,35.85,29.3,51.41,51.52L166,361c9.28,13.29,19.81,28.36,36.15,32.47,17.43,4.38,37.85-2.73,49.64-17.3,16.31-20.15,14.86-49.55,8.65-68.61-6.06-18.64-16.72-34.61-25.29-47.45-5-7.52-9.35-14-11.45-19.16-5.54-13.58-13.47-30.21-13.55-30.38l.9-.43c.08.17,8,16.83,13.58,30.43,2.06,5.06,6.37,11.51,11.35,19,8.6,12.89,19.31,28.93,25.41,47.7,6.29,19.3,7.74,49.09-8.82,69.55-12,14.86-32.87,22.11-50.66,17.64-16.71-4.2-27.35-19.43-36.73-32.87L164,359.8c-15.49-22.11-32.69-39.35-51.13-51.25C92,295.09,68.53,288.1,46.53,288.76c15.95,6.05,31.51,13.76,39.75,27.92,4.31,7.4,6.16,15.87,7.84,24.63q1,5.46,2.06,11.11c7.2,39.31,15.37,83.86,51.82,106.17,18,11,37.87,12.34,51.35,11.49,31.7-2,63.1-17.86,86.16-43.54,14.4-16,22.85-33.28,24.43-49.87,1.78-18.56-4.46-38.72-18.52-59.92-14.51-21.86-28.85-40-42.61-53.8-16.05-16.12-29-42.16-29.17-42.42l.9-.44c.13.26,13,26.15,29,42.16,13.81,13.88,28.19,32,42.73,53.95,14.2,21.39,20.48,41.77,18.69,60.57-1.6,16.8-10.14,34.24-24.69,50.44-23.23,25.87-54.88,41.87-86.83,43.87C197.31,471.21,195.06,471.29,192.67,471.29Z" style="fill: rgb(38, 50, 56); transform-origin: 176.439px 340.715px;" id="elhf80n4ecxhm" class="animable"></path><path d="M220.09,220.31l-9.46-10s8,16.65,13.56,30.4c5,12.21,22.47,31.84,33.11,56.94,1.33-6.47,3.59-15.72,5.78-16.81a5.82,5.82,0,0,1,2.23-.37c-5.23-6.31-10.64-12.35-16.15-17.89C233,246.35,220.09,220.31,220.09,220.31Z" style="fill: rgb(38, 50, 56); transform-origin: 237.97px 253.98px;" id="el3x6c4bdvkib" class="animable"></path><path d="M257.46,299.34l-.62-1.48c-6.17-14.55-14.76-27.43-21.66-37.78-5-7.52-9.35-14-11.45-19.16-5.54-13.58-13.47-30.21-13.55-30.38l-1.37-2.85,11.73,12.4c.13.26,13,26.15,29,42.16,5.23,5.25,10.67,11.28,16.17,17.92l.65.78-1,0a5.47,5.47,0,0,0-2,.31c-.71.36-2.67,2.68-5.51,16.47Zm-45-86.4c2.51,5.35,8.06,17.34,12.25,27.6,2.06,5.06,6.37,11.51,11.35,19,6.7,10,15,22.45,21.12,36.49,2-9.48,4-14.73,5.73-15.61a4.28,4.28,0,0,1,1.44-.36C259,273.74,253.82,268,248.81,263c-15.65-15.72-28.38-40.86-29.14-42.35Z" style="fill: rgb(38, 50, 56); transform-origin: 237.585px 253.515px;" id="elva65i67mfyl" class="animable"></path><path d="M113.13,308.13c14.33,9.24,26.87,21,37.91,34l2.91,5.22s-25.75-14.5-26.29-11.63,1.66,20.27-.51,17.33-7.61-8.95-7.61-8.95,1.56,12.81-.56,11.45-10-12.35-10-12.35-.64,22.72-2.11,21.66-5.73-9.64-5.73-9.64-1.67,12.09-2.64,12.56c-1.76-9-3.3-17.86-4.93-26.38s-3.45-17-7.78-24.47C77.18,302,60.21,294.34,44.05,288.37,68.36,287,92.66,294.94,113.13,308.13Z" style="fill: rgb(255, 255, 255); transform-origin: 99px 327.999px;" id="elilrb218mbyj" class="animable"></path><path d="M98.19,368.52l-.13-.64c-1-5.14-2-10.29-2.86-15.27-.69-3.76-1.37-7.47-2.07-11.12-1.65-8.66-3.49-17-7.72-24.31-8.48-14.56-25-22.23-41.53-28.34L41.62,288l2.4-.13c22.91-1.29,47.55,5.76,69.38,19.84h0c13.39,8.64,26.18,20.11,38,34.1l3.83,6.85-1.55-.87c-11.52-6.49-24.25-12.73-25.59-11.91a65.66,65.66,0,0,0,.22,7.26c.46,8,.45,10.35-.51,10.7-.26.09-.64.08-1.07-.5-1.55-2.1-4.85-5.85-6.54-7.74.39,3.71.8,9.62-.48,10.42a.9.9,0,0,1-1,0c-1.76-1.13-7.11-8.37-9.22-11.28-.3,9.39-.91,20-2.18,20.64a.64.64,0,0,1-.68-.06c-1.19-.86-3.86-5.86-5.17-8.41-.76,5.26-1.78,10.93-2.68,11.37ZM46.53,288.76c15.95,6.05,31.51,13.76,39.75,27.92,4.31,7.4,6.16,15.87,7.84,24.63.69,3.64,1.37,7.36,2.06,11.12.82,4.49,1.67,9.11,2.57,13.73.55-2.13,1.35-6.74,2-11l.22-1.61.72,1.46c1.55,3.12,4.11,7.88,5.3,9.19.68-2,1.33-11.87,1.59-21l0-1.49.87,1.22c2.16,3,8.12,11.11,9.8,12.21.58-.8.38-6.22-.2-11l-.19-1.56,1.06,1.17c.22.24,5.38,5.94,7.58,8.89.31-1.37,0-6.17-.16-9.46a50.21,50.21,0,0,1-.16-7.57.9.9,0,0,1,.52-.65c2.51-1.18,18.92,7.72,25,11.08l-2.05-3.68c-11.72-13.84-24.44-25.25-37.74-33.83h0C92,295.09,68.53,288.1,46.53,288.76Z" style="fill: rgb(38, 50, 56); transform-origin: 98.425px 328.12px;" id="eltfdm8d0d9fs" class="animable"></path><path d="M208.16,221s6.16,9.5,13.82,51.19c5.63,30.62,13,66.07,39.18,86.13,28,21.46,68.18,19.06,98.59,4.21,29.83-14.56,40.51-39.39,41.15-71.36.52-25.93-3.56-53.86,8-78.1,11.76-24.69,30.16-26.3,30.16-26.3s-38.57-3.32-65.05,17c-22.79,17.5-28.5,48.18-40.13,72.86-12.2,25.88-41.74,53.86-71.29,33.06A41.36,41.36,0,0,1,256.1,304c-15.34-16.56-25.11-46.32-30.25-60.13l-8.35-22.43" style="fill: #5F5074; transform-origin: 323.61px 280.309px;" id="el8b8way1o0kp" class="animable"></path><path d="M310.47,374.58c-17.08,0-34.62-4.38-49.62-15.88-25.23-19.33-33-51.91-39.36-86.43-7.54-41-13.69-50.91-13.75-51l.84-.55c.25.39,6.3,10.06,13.89,51.36,6.31,34.33,14,66.72,39,85.83,30.62,23.46,72,16.9,98.07,4.16,27.18-13.27,40.17-35.81,40.87-70.92.12-5.86,0-11.95-.12-17.84-.41-20.45-.83-41.61,8.17-60.47,8.58-18,20.82-23.87,26.88-25.74-10.26-.22-39.74.74-61,17.08-16.5,12.67-24.06,32.49-31.36,51.65-2.69,7-5.46,14.32-8.62,21-7.08,15-22.1,34.35-41.16,39.39-10.69,2.82-21.08.76-30.87-6.13a41.48,41.48,0,0,1-6.57-5.76c-13.84-15-23.1-40.41-28.64-55.63-.61-1.7-1.18-3.26-1.71-4.66L217,221.62l.94-.35,8.35,22.44c.52,1.4,1.09,3,1.71,4.67,5.51,15.14,14.73,40.49,28.44,55.29a40,40,0,0,0,6.41,5.62c9.54,6.72,19.64,8.73,30,6,18.72-4.95,33.52-24,40.51-38.85,3.14-6.66,5.9-13.92,8.58-21,7.36-19.29,15-39.24,31.69-52.09,26.33-20.22,65-17.15,65.4-17.11v1c-.18,0-18.26,1.9-29.75,26-8.89,18.65-8.47,39.68-8.07,60,.11,5.9.24,12,.12,17.88-.71,35.53-13.87,58.35-41.43,71.8A115.79,115.79,0,0,1,310.47,374.58Z" style="fill: rgb(38, 50, 56); transform-origin: 323.385px 280.316px;" id="el6a1ek9rofhj" class="animable"></path><path d="M384.13,337.29l-.64-.76c.08-.07,8.33-7.17,8.33-14.09,0-6-1.15-8.28-1.7-8.46-.13,0-.29.14-.38.25-1.24,1.66-4.18,7.12-4.21,7.17l-1.21,2.25.27-2.54c0-.11,1.27-11.95,1.27-17.81h1c0,4.27-.66,11.66-1,15.47,1-1.75,2.34-4.1,3.11-5.14a1.28,1.28,0,0,1,1.49-.6c1.47.49,2.39,4.1,2.39,9.41C392.82,329.82,384.49,337,384.13,337.29Z" style="fill: rgb(38, 50, 56); transform-origin: 388.17px 320.295px;" id="elzgl8t8gfb1" class="animable"></path><path d="M349.75,343.51c-19.39-2-36.89-18.31-47.89-31.22-11.95,6.21-25.6,7-39.27-2.59A41.36,41.36,0,0,1,256.1,304c-15.34-16.56-25.11-46.32-30.25-60.13l-8.35-22.43-9.34-.46s6.16,9.5,13.82,51.19c5.63,30.62,13,66.07,39.18,86.13,28,21.46,68.18,19.06,98.59,4.21,19.34-9.44,30.63-23.21,36.35-40.44C386.61,332.32,370.13,345.59,349.75,343.51Z" style="fill: rgb(38, 50, 56); transform-origin: 302.13px 297.505px;" id="el3fiaaigvlqt" class="animable"></path><path d="M310.47,374.58c-17.08,0-34.62-4.38-49.62-15.88-25.23-19.33-33-51.91-39.36-86.43-7.54-41-13.69-50.91-13.75-51l-.52-.82,10.63.51,8.47,22.75c.52,1.4,1.09,3,1.71,4.67,5.51,15.14,14.73,40.49,28.44,55.29a40,40,0,0,0,6.41,5.62c12.14,8.55,25.54,9.43,38.75,2.56l.35-.18.26.3c11.15,13.08,28.45,29.09,47.56,31h0c19.8,2,35.91-10.45,45.93-21.27l1.57-1.69-.73,2.19C390.48,340.6,378.5,353.92,360,363A115.79,115.79,0,0,1,310.47,374.58ZM209,221.54c1.57,3,6.93,15.2,13.43,50.54,6.31,34.33,14,66.72,39,85.83,30.62,23.46,72,16.9,98.07,4.16,17.54-8.56,29.11-21,35.33-38-10.26,10.55-26,21.86-45.17,19.89S313,326.09,301.74,312.92c-13.45,6.85-27.08,5.89-39.44-2.81a41.48,41.48,0,0,1-6.57-5.76c-13.84-15-23.1-40.41-28.64-55.63-.61-1.7-1.18-3.26-1.71-4.66l-8.23-22.13Z" style="fill: rgb(38, 50, 56); transform-origin: 302.26px 297.515px;" id="eluslrizzqtds" class="animable"></path><path d="M408.9,213.06c11.76-24.69,30.16-26.3,30.16-26.3s-38.57-3.32-65.05,17c-17.68,13.58-25.08,35.09-32.94,55.57,6.14-5.76,19.24-17.63,19-13.85-.31,4.93-7.05,25.65-.58,20S371.81,254,371.81,254s2.39,32.31,3.45,30.84,2-14.67,2-14.67,4.86,30.31,7.76,22.27,8.73-18.24,8.73-18.24-1.68,15.62,1.15,10.28c1.65-3.12,4.07-9.07,5.8-13.49C400.35,251.19,400.29,231.1,408.9,213.06Z" style="fill: rgb(255, 255, 255); transform-origin: 390.065px 240.178px;" id="el3j7dwss329e" class="animable"></path><path d="M384,294.28h-.1c-2.49-.23-5.07-12.66-6.4-20.12-.38,4.14-1,9.92-1.8,11a.57.57,0,0,1-.63.23c-.39-.11-1.41-.4-3.64-30.24-1.8,1.79-6.51,6.41-11.56,10.79-.43.37-1.73,1.51-2.74.91-1.74-1-.67-6.37,1.14-14.39a60.63,60.63,0,0,0,1.35-6.95.41.41,0,0,0,0-.21c-.69-.29-5.32,2.43-18.15,14.45l-1.59,1.49,2.19-5.73c7.36-19.29,15-39.24,31.69-52.09,26.33-20.22,65-17.15,65.4-17.11v1c-.18,0-18.26,1.9-29.75,26-8.87,18.6-8.45,40.27-8.12,57.69v.1l0,.09c-1.74,4.45-4.16,10.4-5.83,13.54-.25.48-.84,1.59-1.63,1.35-1-.31-1.22-3.5-.69-9.5a129.3,129.3,0,0,0-7.53,16C385.36,293,384.91,294.28,384,294.28Zm-6.86-28.44.68,4.23c1.77,11.05,4.64,23.06,6.18,23.21h0c.05,0,.31-.18.62-1,2.87-8,8.71-18.22,8.77-18.32l1.18-2.08-.25,2.38c-.48,4.46-.69,9.6-.26,10.73a3.83,3.83,0,0,0,.47-.74c1.63-3.07,4-8.93,5.74-13.34-.33-17.5-.73-39.26,8.22-58h0c8.58-18,20.82-23.87,26.88-25.74-10.26-.22-39.74.74-61,17.08-16.5,12.67-24.06,32.49-31.36,51.65l-.65,1.68c15.36-14.24,17.13-13.41,17.71-13.14a1.09,1.09,0,0,1,.57,1.16,61.32,61.32,0,0,1-1.37,7.11c-1.07,4.7-2.85,12.57-1.61,13.31.06,0,.44.18,1.58-.8,6.38-5.55,12.21-11.46,12.27-11.52l.77-.78.08,1.1c.74,9.9,2.08,25.33,2.91,29.54a121,121,0,0,0,1.58-13.38Z" style="fill: rgb(38, 50, 56); transform-origin: 389.52px 240.201px;" id="elieof3u9rheg" class="animable"></path><path d="M220.58,214s-.64,33.21,10.39,64.11,37.56,58.67,50,91c8.87,23.08,13.47,51.08,2.8,74.37-12.52,27.32-45.86,40.12-74.35,39.52-29.88-.63-52.72-19-76.72-34.39C105.45,431.13,72.84,420,58.85,422.32S35.52,435.1,35.52,435.1s-2.88-19.23,17-34.35c25.53-19.47,59.32-23.07,90.33-19.21a196.91,196.91,0,0,1,39.75,9.06c13.91,4.8,36.35,19.92,50.56,9.22,12.38-9.32,3-30.18.47-41.77-6.89-27.74-13.32-56.31-16-84.81-1.83-19.8-4.08-40-4-59.88" style="fill: #5F5074; transform-origin: 162.663px 348.19px;" id="elyynrp3e09sq" class="animable"></path><path d="M211.32,483.46l-1.94,0c-25.69-.55-46.49-14.33-66.59-27.66-3.4-2.25-6.91-4.58-10.39-6.81-26.22-16.78-59.18-28.51-73.47-26.16-13.64,2.26-22.94,12.52-23,12.63l-.71.79L35,435.18c0-.2-2.7-19.7,17.14-34.83,28.53-21.75,65.07-22.5,90.7-19.3a197.24,197.24,0,0,1,39.86,9.07c3.17,1.1,6.78,2.72,10.6,4.45,12.8,5.77,28.73,12.95,39.49,4.85,9.81-7.4,5.6-22.14,2.21-34-.75-2.63-1.46-5.11-1.93-7.27-6.71-27-13.3-56-16-84.87q-.39-4.28-.8-8.55c-1.61-16.86-3.27-34.3-3.25-51.38h1c0,17,1.64,34.44,3.24,51.27.27,2.86.55,5.71.81,8.55,2.66,28.79,9.24,57.74,15.94,84.74.47,2.14,1.18,4.61,1.92,7.23,3.29,11.5,7.8,27.25-2.57,35-11.23,8.46-27.46,1.15-40.5-4.73-3.8-1.71-7.39-3.33-10.52-4.41a196.16,196.16,0,0,0-39.65-9c-25.45-3.17-61.71-2.43-90,19.11C36.06,413.89,35.7,429.76,35.93,434c2.54-2.52,11.12-10.21,22.84-12.14,14.5-2.4,47.77,9.4,74.17,26.3,3.49,2.23,7,4.56,10.4,6.82,20,13.25,40.66,26.95,66.06,27.49,27.57.59,61.1-11.33,73.88-39.23,12.13-26.45,3.45-57.71-2.8-74-6.11-15.89-15.75-30.84-25.07-45.31-9.93-15.41-19.31-30-24.91-45.68-10.93-30.63-10.43-64-10.42-64.29l1,0c0,.33-.51,33.48,10.36,63.93,5.57,15.61,14.92,30.12,24.81,45.48,9.35,14.51,19,29.51,25.16,45.49,6.31,16.42,15.06,48,2.78,74.76C271.52,471.29,238.83,483.46,211.32,483.46Z" style="fill: rgb(38, 50, 56); transform-origin: 162.625px 348.405px;" id="elq6odvzjc92n" class="animable"></path><path d="M205.85,478a29.37,29.37,0,0,1-6-.73l.22-1a24.89,24.89,0,0,0,7,.65l.09,1C206.73,477.94,206.3,478,205.85,478Z" style="fill: rgb(38, 50, 56); transform-origin: 203.505px 477.135px;" id="elwekjqkxfxy" class="animable"></path><path d="M196.3,476.3a30.91,30.91,0,0,1-9.34-4.56c-3.83-2.94-9.33-7.35-12.33-9.76l5.11,8.65-1.67-1c-.07,0-7.33-4.33-15.76-9.8a88.22,88.22,0,0,0-15.21-8l.35-.94A89.67,89.67,0,0,1,162.86,459c6,3.9,11.41,7.19,14,8.77L171,457.72l2.15,1.75c.09.07,9,7.27,14.46,11.48a29.91,29.91,0,0,0,9,4.4Z" style="fill: rgb(38, 50, 56); transform-origin: 171.855px 463.595px;" id="elt5mbdgt7tuk" class="animable"></path><path d="M286.11,419.08c-11.21-12.22-28.8-22.95-46.81-31.71-.34,4.92-2,9.33-6.18,12.45-14.21,10.7-36.65-4.42-50.56-9.22-4.18-1.45-8.45-2.72-12.76-3.86,1.82,9.66,6.3,28.92,15,41.92,12,18,32.59,42.84,28.6,48.56-1.69,2.42-4.94,4.23-8.12,5.5,1.37.11,2.74.19,4.14.22,28.49.6,61.83-12.2,74.35-39.52a68.08,68.08,0,0,0,5.61-20.49C288.35,421.64,287.27,420.35,286.11,419.08Z" style="fill: rgb(38, 50, 56); transform-origin: 229.59px 434.85px;" id="el2xu0y5w5tr4" class="animable"></path><path d="M211.32,483.46l-1.94,0c-1.28,0-2.6-.1-4.17-.22l-2.14-.16,2-.8c3.86-1.55,6.52-3.34,7.9-5.33,2.78-4-8.47-19.63-18.39-33.45-3.53-4.91-7.18-10-10.22-14.55-8.63-12.94-13.12-31.93-15-42.1l-.14-.78.76.21c4.52,1.19,8.82,2.49,12.8,3.86,3.17,1.1,6.78,2.72,10.6,4.45,12.8,5.77,28.73,12.95,39.49,4.85,3.65-2.75,5.61-6.71,6-12.09l.06-.74.66.33c21.29,10.35,37.08,21.06,47,31.83h0c1.12,1.22,2.19,2.49,3.27,3.87l.13.17,0,.2a68.64,68.64,0,0,1-5.66,20.64C271.52,471.29,238.83,483.46,211.32,483.46Zm-4-1.1c.72,0,1.4.06,2.06.08,27.55.59,61.1-11.32,73.88-39.23a67.59,67.59,0,0,0,5.55-20.13c-1-1.31-2-2.5-3.09-3.66h0c-9.69-10.56-25.16-21.08-46-31.29-.52,5.32-2.59,9.28-6.32,12.08-11.23,8.46-27.46,1.15-40.5-4.73-3.8-1.71-7.39-3.33-10.52-4.41-3.73-1.29-7.74-2.51-12-3.64,2,10.26,6.43,28.48,14.74,40.95,3,4.54,6.68,9.61,10.2,14.52,11.1,15.45,21.58,30,18.4,34.6A15.93,15.93,0,0,1,207.34,482.36Z" style="fill: rgb(38, 50, 56); transform-origin: 229.605px 434.765px;" id="elw6lqm3e66s" class="animable"></path><path d="M35.52,435.1s-2.88-19.23,17-34.35c25.25-19.25,58.58-23,89.3-19.33,3.52.93,5.59,2,4.53,3.16-3.75,4.12-15.15,3.47-15.15,3.47s21.55,2.95,20.38,8.19-8.16,4.65-8.16,4.65,17.47,7.6,12.22,8.76-14-1.19-14-1.19,8.14,11.08,7,14-18.65,1.13-18.65,1.13,18.62,14.6,15.13,15.76-8.75.57-8.75.57,6.41,4.67,3.49,5.83-9.32-1.18-9.32-1.18l.59,3c-26.89-16.84-58.51-27.49-72.23-25.23C44.86,424.63,35.52,435.1,35.52,435.1Z" style="fill: rgb(255, 255, 255); transform-origin: 95.9993px 413.866px;" id="elc3zf7x1q2e8" class="animable"></path><path d="M131.8,448.59l-1-.61C104.58,431.54,73,420.5,58.93,422.81c-13.64,2.26-22.94,12.52-23,12.63l-.71.79L35,435.18c0-.2-2.7-19.7,17.14-34.83,28.24-21.52,64.35-22.44,89.67-19.42,4.24,1.11,5,2,5.2,2.7a1.29,1.29,0,0,1-.36,1.28c-2.16,2.38-6.61,3.24-10.2,3.54,5.35,1.05,13.12,3,15.09,5.86a2.52,2.52,0,0,1,.46,2c-.81,3.63-4.19,4.67-6.49,5,4.27,1.95,11.73,5.66,11.54,7.69-.06.56-.52.95-1.37,1.14-4.13.91-10.23-.26-12.9-.87,2.12,3,7.29,10.76,6.24,13.37s-12.58,2-17.48,1.61c4.31,3.44,14.86,12.17,14.42,14.73a1.06,1.06,0,0,1-.77.84,22,22,0,0,1-7.3.72c1.4,1.18,3.31,3.07,3.14,4.45a1.51,1.51,0,0,1-1.06,1.23c-2.44,1-7-.3-8.85-.9ZM63,421.51c15.5,0,43.5,10.28,67.34,25l-.54-2.72.83.3c.06,0,6.26,2.27,9,1.19.4-.17.43-.36.44-.43.12-1-2.29-3.26-4-4.54l-1.52-1.11,1.87.21c.05,0,5.18.57,8.53-.54.73-1.06-6.3-7.86-15.28-14.89l-1.36-1.07,1.72.18c7.1.72,17.42.94,18.13-.83.78-1.93-3.82-9.31-6.91-13.51l-.84-1.15,1.38.37c.08,0,8.68,2.3,13.74,1.18.47-.1.59-.24.59-.26.1-1-5.81-4.47-12.9-7.55l-2.78-1.21,3,.25c.26,0,6.57.49,7.63-4.26a1.49,1.49,0,0,0-.3-1.25c-2.77-4-19.49-6.31-19.66-6.33l.1-1c.11,0,11.21.59,14.75-3.31.18-.19.15-.29.14-.33-.06-.21-.57-1-4.43-2-25.07-3-60.9-2.08-88.87,19.24C36,413.91,35.69,429.77,35.93,434c2.54-2.52,11.12-10.21,22.84-12.14A26.48,26.48,0,0,1,63,421.51Z" style="fill: rgb(38, 50, 56); transform-origin: 95.965px 414.127px;" id="el5b99on2e15" class="animable"></path><path d="M279.78,133.53s5.89,1.77,16.78,1.47,13.24.88,14.72,1.77,11.14,11,12.38,12.11a3.51,3.51,0,0,1,.53,4.94c-1.41,1.94-5.83,3.36-6.89,1.06l-1.06-2.3a10.36,10.36,0,0,1-6.14-4c-2.06-3.24-3.24-7.06-4.71-7.36s-9.12.3-15.89,1.77-20.9,4.71-20.9,4.71Z" style="fill: rgb(38, 50, 56); transform-origin: 296.785px 144.799px;" id="elmck3mpxbp8" class="animable"></path><path d="M319.52,156.57l-.43,0a2.57,2.57,0,0,1-2.24-1.46l-1-2.07a10.68,10.68,0,0,1-6.21-4.21c-.76-1.2-1.41-2.47-2-3.6-.84-1.67-1.71-3.4-2.41-3.54-1.35-.27-8.9.29-15.69,1.77s-20.75,4.67-20.89,4.7l-1.39.32L279.6,133l.33.1c.06,0,5.95,1.74,16.62,1.45,11.4-.31,13.65,1,15,1.84.92.55,4.3,3.95,8.63,8.34,1.82,1.85,3.4,3.45,3.83,3.82a4,4,0,0,1,.6,5.61A6.86,6.86,0,0,1,319.52,156.57Zm-15.36-16a8.3,8.3,0,0,1,1.33.08c1.17.24,2,1.85,3.11,4.07.56,1.11,1.19,2.36,1.92,3.51a9.92,9.92,0,0,0,5.82,3.82l.25,0,1.17,2.53a1.6,1.6,0,0,0,1.43.88,5.85,5.85,0,0,0,4.6-2,3,3,0,0,0-.45-4.27c-.47-.4-2-1.94-3.89-3.88-3-3-7.55-7.65-8.43-8.18-1.25-.75-3.33-2-14.45-1.7-9.54.26-15.21-1-16.6-1.4l-10.1,12.75c3.74-.85,14.07-3.21,19.52-4.39A84.11,84.11,0,0,1,304.16,140.61Z" style="fill: rgb(38, 50, 56); transform-origin: 296.375px 144.785px;" id="elhasehy00a67" class="animable"></path><path d="M247.06,190.44s37.28-7.45,50.57-1.94,10.05,16.53,5.19,26.58-28.85,24-25.93,25.29,29.17,1.62,33.06,1,12,1,16.54,3.89,6.16,4.86,1,6.16a36.32,36.32,0,0,1-11,.65s-5.19-5.84-9.08-5.84-22,1.3-32.74,1-18.8-2.27-17.18-5.18,11.67-14.92,10.7-17.83-19.78-3.24-19.78-3.24S216.92,198.22,247.06,190.44Z" style="fill: rgb(38, 50, 56); transform-origin: 282.349px 219.349px;" id="elxkt6rf8zrt" class="animable"></path><path d="M320,252.7a33.43,33.43,0,0,1-3.63-.17l-.19,0-.13-.14c-.05-.06-5.08-5.67-8.7-5.67-1.24,0-4,.14-7.44.31-7.18.35-18,.88-25.32.66-3.65-.11-15.74-.73-17.62-4a1.84,1.84,0,0,1,0-1.88c.48-.87,1.63-2.44,3.09-4.42,3.06-4.18,8.18-11.18,7.57-13-.54-1.62-10.24-2.75-19.31-2.9h-.15l-.13-.09c-.67-.48-16.25-11.85-14.43-21.5.85-4.48,5.32-7.8,13.3-9.86h0c1.52-.3,37.58-7.42,50.86-1.91,4.59,1.9,7.58,4.63,8.91,8.11,2.26,5.95-.67,13.36-3.47,19.15s-11.92,12.91-18.57,18.09c-3.4,2.64-7.23,5.63-7.54,6.55,3.26,1.25,29,1.52,32.71.9,3.93-.65,12.17.94,16.89,4,2.81,1.81,4.64,3.31,4.4,4.74-.16,1-1.3,1.75-3.58,2.32A31.73,31.73,0,0,1,320,252.7Zm-3.33-1.14a35.8,35.8,0,0,0,10.66-.66c2.35-.59,2.78-1.2,2.84-1.51.17-1.08-2.94-3.08-4-3.74-4.46-2.87-12.5-4.43-16.18-3.82-4.14.69-30.35.33-33.36-1a.86.86,0,0,1-.53-.69c-.14-1.14,1.94-2.87,7.93-7.53,6.57-5.11,15.57-12.12,18.29-17.74s5.56-12.77,3.43-18.36c-1.24-3.25-4-5.72-8.36-7.54-12.9-5.35-49.38,1.8-50.26,2-7.57,1.95-11.79,5-12.56,9.08-1.62,8.59,12.43,19.31,13.91,20.41,3.54.06,19.06.53,20.08,3.58.71,2.14-3.07,7.57-7.72,13.91-1.37,1.88-2.56,3.5-3,4.32a.82.82,0,0,0,0,.9c.87,1.54,6.4,3.23,16.78,3.54,7.23.23,18.07-.31,25.24-.66,3.48-.17,6.23-.31,7.49-.31C311.12,245.7,315.81,250.62,316.68,251.56Z" style="fill: rgb(38, 50, 56); transform-origin: 282.292px 219.378px;" id="ely1kwjp5fulp" class="animable"></path><path d="M271.84,72s.29,7.36-18.25,15.3-31.2,7.36-38.26,11.19S206.5,105,206.5,105l8.24-1.76s-7.65,3.53-11.18,9.71-3.54,9.71-3.54,9.71l6.48-4.12a89.47,89.47,0,0,0-12.1,34c-2.94,20.31,5,39,8.27,47.87s4.42,9.42,2.36,16.48-21.3,36.44-23.25,64.75c-2.57,37.22,26.49,70.35,73.28,75.35s78.5-27.22,87.62-40.76,17.09-45.58,11.27-77.85c-4.05-22.46-16.48-39.74-16.48-39.74s8.77,28.6,1.71,52.73-11.81,34.4-35.07,45.58-51.27,13.59-74.07-7.36c-28-25.79-14.42-72.7-14.42-72.7s1.47,5.89,14.72,8,24.43,3.23,25.6,7.94-10,7.36-17.07,8.54-7.06,6.47-5.59,10,28.26,19.42,32.67,22.36a27.29,27.29,0,0,1,7.06,7.07s.89,4.41.59,6.18-2.94,8.83-2.35,11.48,4.41,2.94,7.95,0,2.94-5.3,3.82-11.78-3.53-10-6.18-11.48-20.9-16.18-24.13-18.83a27.54,27.54,0,0,1-4.12-3.83s42.38-.88,48.26-10.89-5.59-23.84-17.07-32.08-25.9-13.54-31.19-24.13,5.88-22.07,11.47-25.61S275.37,145,275.37,145l-1.47,5s2.94-1.18,6.47-7.95a30.9,30.9,0,0,0,3.53-12.94l1.48,9.41s5-3.23,6.47-7.06,2.06-12.07,2.06-12.07l2.36,7.07,1.17-10,1.77,2.94s-2.94-15.3-4.42-27.07a59.91,59.91,0,0,1,.59-20s-12.65-5.3-17.66-6.47l-5-1.18Z" style="fill: #5F5074; transform-origin: 268.777px 211.096px;" id="elsgdrxq5375m" class="animable"></path><path d="M264.63,357.93a90.34,90.34,0,0,1-9.62-.51c-45.42-4.86-76.43-36.77-73.73-75.88,1.45-21.07,12.33-42.53,18.83-55.35a79.19,79.19,0,0,0,4.44-9.51c1.67-5.73,1.17-7-.91-12.4-.42-1.07-.9-2.31-1.44-3.77q-.39-1.06-.87-2.34c-3.54-9.43-10.15-27-7.42-45.77a93.39,93.39,0,0,1,11-32.3l-5.43,3.45v-.91c0-.15,0-3.74,3.6-10a25.41,25.41,0,0,1,8.46-8.28l-6.18,1.33.68-1c.08-.11,1.92-2.79,9-6.63,3.11-1.69,7.21-2.52,12.4-3.57a123.16,123.16,0,0,0,25.9-7.64C271.28,79.2,271.34,72.1,271.34,72v0l1-8,5.55,1.3c5,1.17,17.22,6.28,17.74,6.5L296,72l-.1.41a60.06,60.06,0,0,0-.58,19.83c1.45,11.63,4.38,26.9,4.41,27.05l.53,2.77L297.77,118l-1.27,10.78-2.31-6.92a45.81,45.81,0,0,1-1.87,9.82c-1.52,3.93-6.46,7.17-6.67,7.3l-.65.42-1-6.43a33,33,0,0,1-3.18,9.36c-3.58,6.85-6.61,8.12-6.74,8.18l-.95.38,1.13-3.85c-2.95,3.28-9.59,10.4-13.93,13.14-5.66,3.57-16.36,14.82-11.3,25,3.62,7.23,11.6,12,20,17,3.68,2.19,7.48,4.44,11,7,12.76,9.16,23,22.84,17.2,32.74-5.49,9.33-40.74,10.89-47.59,11.1a41.83,41.83,0,0,0,3.33,3c4.21,3.44,21.54,17.38,24.06,18.79,2.26,1.25,7.4,4.93,6.44,12-.18,1.32-.3,2.47-.41,3.48-.4,4-.63,6.14-3.59,8.61-2.25,1.87-4.82,2.63-6.7,2a3,3,0,0,1-2.06-2.27c-.45-2,.77-6.1,1.65-9.1.33-1.12.62-2.08.7-2.56.25-1.52-.44-5.26-.57-5.91a27,27,0,0,0-6.87-6.84c-.95-.64-3-1.9-5.56-3.5-13.2-8.19-26.17-16.41-27.29-19.09-.51-1.23-1.54-4.37,0-7.1,1.05-1.9,3.07-3.11,6-3.59,8.94-1.49,14.74-3.64,16.31-6a2.28,2.28,0,0,0,.36-1.89c-1-3.9-10.36-5.32-21.23-7l-4-.61c-9.71-1.51-13.25-5.06-14.49-7-1.9,7.72-10.29,48,14.61,70.89,26.5,24.35,57.44,15,73.52,7.28,22.91-11,27.74-21.17,34.8-45.27,6.94-23.72-1.62-52.16-1.71-52.44l-.89-2.91,1.78,2.47c.12.18,12.54,17.63,16.56,39.94,5.68,31.45-1.61,63.78-11.34,78.22C332.94,331.51,304.28,357.93,264.63,357.93ZM208.24,116.82l-1.33,2a89.72,89.72,0,0,0-12,33.74c-2.69,18.53,3.85,35.93,7.37,45.28.32.85.61,1.63.87,2.35.54,1.45,1,2.68,1.43,3.75,2.13,5.5,2.71,7,.94,13-.55,1.88-2.21,5.15-4.51,9.68-6.46,12.75-17.28,34.1-18.72,55-2.66,38.56,28,70,72.83,74.82,44.16,4.72,76.32-24.45,87.16-40.54,9.62-14.28,16.82-46.29,11.19-77.49-3.09-17.12-11.17-31.36-14.71-37,2,8,6.6,30.56.91,50-7.15,24.41-12,34.69-35.33,45.89-16.31,7.84-47.69,17.31-74.62-7.45-28-25.69-14.7-72.73-14.57-73.2l.52-1.78.45,1.8c0,.05,1.63,5.6,14.31,7.57l4,.61c11.68,1.76,20.91,3.16,22.05,7.71a3.24,3.24,0,0,1-.49,2.67c-2.22,3.39-10.46,5.39-17,6.48-2.62.44-4.4,1.48-5.29,3.1-1.3,2.34-.38,5.13.07,6.22,1.09,2.62,18.52,13.43,26.9,18.63,2.58,1.6,4.62,2.87,5.59,3.52a27.38,27.38,0,0,1,7.21,7.21l.06.17c0,.18.9,4.52.6,6.36-.09.54-.37,1.49-.73,2.69-.8,2.72-2,6.84-1.63,8.6a2,2,0,0,0,1.4,1.54c1.54.52,3.78-.19,5.74-1.82,2.65-2.21,2.83-4,3.24-7.94.1-1,.22-2.18.41-3.51.84-6.22-3.35-9.55-5.93-11-2.76-1.53-21.75-16.87-24.21-18.88a27.07,27.07,0,0,1-4.2-3.92l-.59-.78,1,0c.42,0,42.17-1,47.84-10.64,5.48-9.31-4.94-22.81-16.93-31.42-3.47-2.5-7.26-4.75-10.92-6.92-8.58-5.09-16.68-9.9-20.43-17.4-5.37-10.74,5.76-22.52,11.66-26.25,5.46-3.45,15.09-14.51,15.19-14.62L276.5,143l-1.74,5.89a22,22,0,0,0,5.17-7,30.67,30.67,0,0,0,3.47-12.71l1-.08,1.35,8.62c1.37-1,4.55-3.54,5.63-6.37,1.43-3.71,2-11.84,2-11.92l.18-2.51,2.44,7.32,1.09-9.23,1.09,1.81c-.92-5-2.83-15.68-3.91-24.37a63.16,63.16,0,0,1,.5-19.78c-2.16-.89-12.77-5.25-17.19-6.29l-4.46-1L272.34,72c0,.71-.46,8-18.55,15.74a124.3,124.3,0,0,1-26.1,7.7c-5.11,1-9.15,1.85-12.12,3.47a36.28,36.28,0,0,0-7.65,5.21l11.1-2.37L215,103.67c-.07,0-7.55,3.54-11,9.51a26.34,26.34,0,0,0-3.35,8.48Z" style="fill: rgb(38, 50, 56); transform-origin: 268.75px 210.965px;" id="el716rwey0gu5" class="animable"></path><path d="M254,352.32c-8.48,0-20.07-5.36-20.58-5.6l.42-.91c.12.06,11.1,5.14,19.3,5.49l-6.62-4.08,3,.69c.16,0,16.65,3.74,31.66-.42,9-2.5,9.43-3.92,9.42-4.18s-.77-.68-1.32-.81l.23-1c.21.05,2.07.52,2.09,1.76,0,1-1,2.62-10.15,5.16-11.65,3.23-24.14,1.81-29.49.93l4.61,2.84-1.61.08Z" style="fill: rgb(38, 50, 56); transform-origin: 262.51px 346.91px;" id="el6lzqg5oh3jq" class="animable"></path><path d="M354,238.31c-4.05-22.46-16.48-39.74-16.48-39.74s8.77,28.6,1.71,52.73-11.81,34.4-35.07,45.58q-2.25,1.08-4.58,2.06l-.08.33s10.53,1,16.55-2,3,1,1,6,12.54-5,15.05-8-10,20.07-8,21.08,11-8.53,11-8.53-10,17.06-6.52,18.56c1.39.6,4.13,0,7.39-1.78a76.23,76.23,0,0,0,6.74-8.42C351.81,302.62,359.77,270.58,354,238.31Z" style="fill: rgb(255, 255, 255); transform-origin: 327.728px 262.588px;" id="ellcu5qnnzsb" class="animable"></path><path d="M329.81,327.08a3.81,3.81,0,0,1-1.46-.26,1.6,1.6,0,0,1-.9-1c-.91-2.74,2.91-10.46,5.35-15-3.06,3-7.41,6.76-9,6-1.31-.65-.18-3.93,5.5-15.95.68-1.45,1.38-2.92,1.88-4-3.57,3.13-12.43,9.35-14.39,8.19-.37-.22-.72-.73-.26-1.9.41-1,.87-2,1.27-2.88.6-1.32,1.43-3.13,1.23-3.48,0,0-.47-.2-2.81,1-6.08,3-16.4,2.09-16.83,2.05l-.58-.05.29-1.14.23-.09c1.55-.65,3.08-1.34,4.56-2.05,22.91-11,27.74-21.17,34.8-45.27,6.93-23.71-1.62-52.16-1.71-52.44l-.89-2.91,1.78,2.47c.12.18,12.54,17.63,16.56,39.94h0c5.68,31.45-1.61,63.78-11.34,78.22a76,76,0,0,1-6.79,8.48l-.13.1A14.55,14.55,0,0,1,329.81,327.08Zm7.92-22.82-2.23,3.79c-2.29,3.89-8,14.61-7.1,17.42a.59.59,0,0,0,.35.43c1,.43,3.32.2,6.88-1.72a73.48,73.48,0,0,0,6.64-8.3c9.62-14.28,16.81-46.29,11.19-77.49h0c-3.09-17.12-11.17-31.35-14.71-37,2,8,6.6,30.56.91,50-7.15,24.41-12,34.69-35.33,45.89-1.09.52-2.21,1-3.35,1.53,3.1.15,10.3.2,14.8-2.05,2.27-1.13,3.38-1.36,4-.79.75.72.08,2.19-1,4.61-.39.86-.84,1.84-1.24,2.84-.21.52-.14.68-.14.68,1.1.71,11.72-6.06,14.35-9.22.17-.21.53-.64,1-.37s.56.36-2.42,6.68c-2.05,4.34-6.29,13.32-5.9,14.66,1.14.33,6.23-4.06,10.39-8.45Z" style="fill: rgb(38, 50, 56); transform-origin: 327.617px 261.49px;" id="elwext7zld91h" class="animable"></path><path d="M264.48,138.53c-.88,2.36-10.3,12.07-14.42,20s-7.95,12.65-7.36,20,7.67,11.32,9.32,11.74a22.6,22.6,0,0,1-3.43-5c-5.3-10.6,5.88-22.07,11.47-25.61S275.37,145,275.37,145l-1.47,5s2.94-1.18,6.47-7.95a30.9,30.9,0,0,0,3.53-12.94l1.48,9.41s5-3.23,6.47-7.06,2.06-12.07,2.06-12.07l2.36,7.07,1.17-10,1.77,2.94s-2.94-15.3-4.42-27.07a59.91,59.91,0,0,1,.59-20s-5-2.1-10-4c0,1.64-.09,15.53-1.48,21.62-1.47,6.48-10.3,15-11.77,20.6a70.47,70.47,0,0,0-1.76,8l5-3.83a29,29,0,0,0-5,8.83C268.89,128.23,265.36,136.18,264.48,138.53Z" style="fill: rgb(255, 255, 255); transform-origin: 270.925px 129.3px;" id="elkxlpqq9yg" class="animable"></path><path d="M253.48,191.2l-1.59-.41c-1.88-.49-9.1-4.77-9.69-12.19-.48-6,1.93-10.32,5-15.79.79-1.41,1.61-2.88,2.44-4.49,2.5-4.82,7-10.32,10.22-14.34,2.07-2.55,3.86-4.76,4.18-5.62s.79-2,1.45-3.55c1.44-3.46,3.42-8.21,4.43-11.44a25.26,25.26,0,0,1,3-6.16l-3.19,2.43.15-1.18a68.45,68.45,0,0,1,1.78-8c.72-2.73,3.05-6,5.53-9.52,2.69-3.81,5.48-7.75,6.24-11.07,1.37-6,1.45-19.94,1.46-21.51v-.71l.67.25c4.93,1.83,10,3.94,10,4L296,72l-.1.41a60.06,60.06,0,0,0-.58,19.83c1.45,11.63,4.38,26.9,4.41,27.05l.53,2.77L297.77,118l-1.27,10.78-2.31-6.92a45.81,45.81,0,0,1-1.87,9.82c-1.52,3.93-6.46,7.17-6.67,7.3l-.65.42-1-6.43a33,33,0,0,1-3.18,9.36c-3.58,6.85-6.61,8.12-6.74,8.18l-.95.38,1.13-3.85c-2.95,3.28-9.59,10.4-13.93,13.14-5.66,3.57-16.36,14.82-11.3,25a22.1,22.1,0,0,0,3.36,4.86Zm25.36-79.79L275.75,115a28.51,28.51,0,0,0-4.91,8.65c-1,3.28-3,8-4.46,11.53-.62,1.5-1.16,2.79-1.43,3.51-.38,1-2,3.06-4.34,5.9-3.23,4-7.66,9.44-10.11,14.17-.84,1.62-1.66,3.1-2.46,4.52-3.07,5.52-5.3,9.51-4.84,15.22.41,5.15,4.38,8.74,7,10.36a21,21,0,0,1-2.07-3.33c-5.37-10.74,5.76-22.52,11.66-26.25,5.46-3.45,15.09-14.51,15.19-14.62L276.5,143l-1.74,5.89a22,22,0,0,0,5.17-7,30.63,30.63,0,0,0,3.47-12.72l1-.07,1.35,8.62c1.37-1,4.55-3.54,5.63-6.37,1.43-3.71,2-11.84,2-11.92l.18-2.51,2.44,7.32,1.09-9.23,1.09,1.81c-.92-5-2.83-15.68-3.91-24.37a63.16,63.16,0,0,1,.5-19.78c-1.2-.5-5-2.07-8.93-3.54,0,3.33-.21,15.42-1.48,21-.8,3.52-3.64,7.54-6.4,11.42-2.42,3.42-4.7,6.65-5.37,9.2-.86,3.27-1.32,5.43-1.55,6.65Z" style="fill: rgb(38, 50, 56); transform-origin: 271.199px 129.425px;" id="elix9d7id5tac" class="animable"></path><path d="M273,280.69s.89,4.41.59,6.18-2.94,8.83-2.35,11.48,4.41,2.94,7.95,0,2.94-5.3,3.82-11.78-3.53-10-6.18-11.48c-2.06-1.14-13.6-10.33-20.12-15.59-5.28,1-5.87,3.29-5.6,4.82,6.57,4.18,12.88,8,14.83,9.3A27.29,27.29,0,0,1,273,280.69Z" style="fill: rgb(255, 255, 255); transform-origin: 267.09px 279.974px;" id="eltzv810ivtkc" class="animable"></path><path d="M274.24,301a4.4,4.4,0,0,1-1.42-.23,3,3,0,0,1-2.06-2.27c-.45-2,.77-6.1,1.65-9.1.33-1.12.62-2.08.7-2.56.25-1.52-.44-5.26-.57-5.91a27,27,0,0,0-6.87-6.84c-.95-.64-3-1.9-5.55-3.49s-5.94-3.69-9.27-5.8l-.19-.12,0-.22c-.26-1.56.16-4.33,6-5.4l.22,0,.18.15c8.52,6.86,18.26,14.54,20.05,15.54,2.26,1.25,7.4,4.93,6.44,12-.18,1.32-.3,2.47-.41,3.48-.4,4-.63,6.14-3.59,8.61A8.68,8.68,0,0,1,274.24,301ZM251.58,264c3.26,2.07,6.45,4.05,9.07,5.67s4.61,2.86,5.58,3.51a27.38,27.38,0,0,1,7.21,7.21l.06.17c0,.18.9,4.52.6,6.36-.09.54-.37,1.49-.73,2.69-.8,2.72-2,6.84-1.63,8.6a2,2,0,0,0,1.4,1.54c1.54.52,3.78-.19,5.74-1.82,2.65-2.21,2.83-4,3.24-7.94.1-1,.22-2.18.41-3.51.84-6.22-3.35-9.55-5.93-11-2.29-1.27-15.67-12-20-15.49C254.09,260.53,251.33,261.61,251.58,264Z" style="fill: rgb(38, 50, 56); transform-origin: 267.136px 280.03px;" id="el9ulzd0gjcai" class="animable"></path><path d="M272.51,300.4v-1c.59,0,1.7-1,2.56-2.84a20.36,20.36,0,0,0,1.3-4.67l1,.15A22.09,22.09,0,0,1,276,297C275,299.06,273.64,300.4,272.51,300.4Z" style="fill: rgb(38, 50, 56); transform-origin: 274.94px 296.145px;" id="elg2klow0f14v" class="animable"></path><path d="M277.47,299.77l-.54-.85c2.87-1.84,3-6.47,3-6.52l1,0C280.94,292.63,280.79,297.63,277.47,299.77Z" style="fill: rgb(38, 50, 56); transform-origin: 278.93px 296.085px;" id="eljj84h25zzel" class="animable"></path><path d="M287.4,42.54s17.66-.92,25.76,0,16,7.36,21.89,10.49,8.46,2.76,5.89,3.13-10.49,3.49-15.09,4.6-17.11,2-17.11,2Z" style="fill: rgb(38, 50, 56); transform-origin: 314.667px 52.4456px;" id="elu6e1n5wz6ko" class="animable"></path><path d="M308.56,63.3,286.21,42.1l1.16-.06c.18,0,17.8-.91,25.84,0,6.05.68,11.87,4.31,17,7.51,1.81,1.13,3.52,2.2,5.07,3a35.74,35.74,0,0,0,6,2.56c.79.26,1.15.38,1.11.84s-.36.51-1.42.66a59.71,59.71,0,0,0-7,2.09c-2.86,1-5.83,2-8.08,2.5-4.59,1.1-16.68,2-17.19,2ZM288.59,43l20.33,19.28c1.69-.13,12.64-1,16.81-2,2.21-.53,5.16-1.52,8-2.48,2.6-.87,4.9-1.64,6.38-2a38.33,38.33,0,0,1-5.31-2.34c-1.58-.84-3.31-1.92-5.13-3.06-5-3.14-10.76-6.71-16.58-7.37C306.34,42.27,292.67,42.8,288.59,43Z" style="fill: rgb(38, 50, 56); transform-origin: 314.301px 52.4678px;" id="elstl2kwrgs4f" class="animable"></path><path d="M297,51.41s-12.06-11.82-17.12-15.92-5.07-5.3-7-3.61a9.72,9.72,0,0,1-7,1.92c-1.93-.24-10.78-6-15.84-9.1s-4.05,2.39-4.17,5.49c-.16,4,12.3,20.25,14.22,22.9s4.34,9.41,3.14,13.75a17.48,17.48,0,0,1-3.14,6.51,36.87,36.87,0,0,0,4.1-2.41c1.69-1.21,3.62-4.82,3.62-4.82a22.45,22.45,0,0,1-1,9.64A19.32,19.32,0,0,1,263.24,82s4.1-2.17,7.72-3.62a13.56,13.56,0,0,0,5.78-5.06l-2.65,7.72s2.65-1.69,6.27-3.86a9.4,9.4,0,0,0,4.34-5.55,23,23,0,0,0,15.91,7.24c10.37.48,35-8.93,35-8.93s-14.95-2.89-22.19-8.44A118.51,118.51,0,0,0,297,51.41Z" style="fill: #5F5074; transform-origin: 290.735px 52.8909px;" id="eld5ujozifx4s" class="animable"></path><path d="M260.57,84l2.31-2.33a19.07,19.07,0,0,0,3.51-6.1,20.42,20.42,0,0,0,1.06-7.83,13.56,13.56,0,0,1-3,3.59,36.66,36.66,0,0,1-4.16,2.46L258,75l1.7-1.93a17.32,17.32,0,0,0,3-6.31c1.12-4-1.07-10.58-3.06-13.32l-1-1.3c-5.8-7.79-13.5-18.53-13.36-21.92,0-.48,0-1,0-1.57,0-2.13-.07-4.34,1.27-5.1.85-.48,2-.23,3.66.77L253.05,26c4.54,2.84,11.4,7.14,12.9,7.33a9.23,9.23,0,0,0,6.6-1.81c1.76-1.54,2.48-.9,4.61,1,.76.69,1.72,1.54,3,2.6,4.85,3.93,16.2,15,17.1,15.9A119.08,119.08,0,0,1,313.7,61.14c7.05,5.41,21.82,8.31,22,8.34l1.72.34-1.63.62c-1,.39-24.81,9.43-35.17,9a23.64,23.64,0,0,1-15.68-6.77,10.12,10.12,0,0,1-4.29,5c-3.57,2.14-6.24,3.83-6.26,3.85l-1.21.76,2.17-6.3a12.26,12.26,0,0,1-4.18,2.93c-3.55,1.42-7.63,3.57-7.67,3.59Zm7.54-19.49.21,1.53a22.58,22.58,0,0,1-1,9.89A24.52,24.52,0,0,1,265,80.58c1.53-.76,3.75-1.81,5.79-2.63a13.09,13.09,0,0,0,5.54-4.86L278.76,69,275,79.89c1.12-.7,2.94-1.83,5.08-3.11a9.08,9.08,0,0,0,4.11-5.22l.22-1,.65.79a22.68,22.68,0,0,0,15.56,7.06c8.62.39,27.52-6.24,33.15-8.3-4.15-.93-14.82-3.66-20.7-8.17a119.61,119.61,0,0,0-16.32-10.08l-.12-.09c-.12-.11-12.1-11.84-17.09-15.88-1.33-1.08-2.29-1.94-3.07-2.63-2.18-2-2.2-1.94-3.28-1a10.29,10.29,0,0,1-7.38,2c-1.6-.2-6.75-3.36-13.32-7.47-1-.62-1.9-1.2-2.72-1.71-1.24-.77-2.16-1-2.65-.75-.82.47-.79,2.55-.76,4.22,0,.57,0,1.12,0,1.62-.14,3.42,9.87,16.87,13.16,21.28l1,1.31c1.86,2.55,4.52,9.47,3.21,14.17a21.34,21.34,0,0,1-2,5c.72-.41,1.54-.91,2.23-1.4,1.58-1.12,3.45-4.61,3.47-4.65Z" style="fill: rgb(38, 50, 56); transform-origin: 291.349px 53.657px;" id="elwiz3jfcus0t" class="animable"></path><path d="M250.21,24.8l-.16-.1c-5.06-3.14-4.05,2.39-4.17,5.49C246.17,27.93,248.63,25.89,250.21,24.8Z" style="fill: rgb(38, 50, 56); transform-origin: 248.04px 26.978px;" id="elb4wpt87lo5" class="animable"></path><path d="M246.37,30.25l-1-.08c0-.48,0-1,0-1.57,0-2.13-.07-4.34,1.27-5.1.85-.48,2-.23,3.66.77l.65.4-.47.54C249.07,26.19,246.64,28.16,246.37,30.25Zm1.24-6a1,1,0,0,0-.47.1c-.68.39-.77,1.9-.77,3.37a13.17,13.17,0,0,1,2.92-2.9A3.88,3.88,0,0,0,247.61,24.27Z" style="fill: rgb(38, 50, 56); transform-origin: 248.16px 26.757px;" id="el7wl7pdmnmxx" class="animable"></path><path d="M278.38,47.7a12.27,12.27,0,0,0-3.86-4.6c-2.39-1.48-4.23-1.84-5.34-3l-1.1-1.1s1.47,4.78,3.13,5.52S277.65,46,278.38,47.7Z" style="fill: rgb(255, 255, 255); transform-origin: 273.23px 43.35px;" id="el5kd6qsbp6m4" class="animable"></path><path d="M277.93,47.91a.46.46,0,0,0,0-.08c-.5-.91-3-1.62-4.68-2.09A18.6,18.6,0,0,1,271,45c-1.81-.8-3.24-5.31-3.4-5.82L267,37.27l2.53,2.53a8.32,8.32,0,0,0,2.35,1.38,23,23,0,0,1,2.89,1.49,12.47,12.47,0,0,1,4,4.73.41.41,0,0,1,0,.09Zm-8.64-7c.62,1.44,1.41,2.89,2.12,3.2a17.44,17.44,0,0,0,2.08.66,29.4,29.4,0,0,1,3.13,1,9.13,9.13,0,0,0-2.36-2.27,24,24,0,0,0-2.78-1.43A11.81,11.81,0,0,1,269.29,40.91Z" style="fill: rgb(38, 50, 56); transform-origin: 272.886px 42.59px;" id="elc0i020mbpr" class="animable"></path><path d="M300.61,78.9c10.37.48,35-8.93,35-8.93s-14.95-2.89-22.19-8.44A118.51,118.51,0,0,0,297,51.41s-10.52-4.63-11.44-1.32-.37,5.33-1.11,6.25-5-1.1-3.86.55,4.17,11.88,4.11,14.77A23,23,0,0,0,300.61,78.9Z" style="fill: rgb(38, 50, 56); transform-origin: 308.004px 63.9076px;" id="el7r4cniwhjpk" class="animable"></path><path d="M301.42,79.41h-.83A23.25,23.25,0,0,1,284.31,72l-.11-.14v-.19c.06-2.87-3-13-4-14.48-.1-.16-.44-.66-.15-1.1s1.1-.37,2.15-.17c.54.1,1.69.31,1.9.13a4,4,0,0,0,.37-1.93,18.77,18.77,0,0,1,.64-4.15,1.89,1.89,0,0,1,1.07-1.23c2.8-1.33,10.21,1.86,11.05,2.23a120.8,120.8,0,0,1,16.5,10.19c7.05,5.41,21.82,8.31,22,8.34l1.72.34-1.63.62C334.77,70.82,312.16,79.41,301.42,79.41Zm-.78-1c8.64.4,27.52-6.24,33.15-8.3-4.15-.93-14.82-3.66-20.7-8.17a119.61,119.61,0,0,0-16.32-10.08c-2.13-.93-8.17-3.19-10.2-2.23a.92.92,0,0,0-.53.6,18.35,18.35,0,0,0-.61,4,4.24,4.24,0,0,1-.59,2.48c-.52.66-1.71.44-2.85.23-.28-.05-.64-.12-.91-.15,1.15,1.94,4.06,11.55,4.12,14.74a22.76,22.76,0,0,0,15.44,6.93Z" style="fill: rgb(38, 50, 56); transform-origin: 308.693px 63.9138px;" id="el510715g6x27" class="animable"></path><path d="M335.06,69.87a93.46,93.46,0,0,1-29.63-5.62c-12.51-4.6-17.85-7-20.79-4.78s.06,12.19.06,12.19a23,23,0,0,0,15.91,7.24c10.37.48,35-8.93,35-8.93Z" style="fill: rgb(255, 255, 255); transform-origin: 309.479px 68.7752px;" id="el5gwa8ycfv4q" class="animable"></path><path d="M301.42,79.41h-.83A23.25,23.25,0,0,1,284.31,72l-.09-.17c-.32-1.06-3-10.39.12-12.74,2.84-2.13,7.4-.43,17.38,3.28l3.88,1.43a92.54,92.54,0,0,0,29.46,5.59h.1l2.23.44-1.63.62C334.77,70.82,312.16,79.41,301.42,79.41Zm-16.27-8a22.72,22.72,0,0,0,15.49,7c8.36.39,26.34-5.83,32.58-8.09a93.79,93.79,0,0,1-28-5.59l-3.87-1.43c-9.64-3.59-14-5.22-16.44-3.42C282.78,61.49,284.33,68.65,285.15,71.42Z" style="fill: rgb(38, 50, 56); transform-origin: 310.117px 68.784px;" id="elvwp4gr50y0i" class="animable"></path><path d="M231.22,126.76s3.53,12.66,1.77,22.37-10.89,11.48-9.42,12.36a35.67,35.67,0,0,0,5.3,2.06s-8-1.18-5.89.59,4.71,3.53,4.71,3.53-6.47-.88-3.83,1.18,9.13,5.59,24.14,8.53,40,8.54,40,8.54,3.83,7.65,5.6,9.42,1.76,5.29,1.76,7.65,4.42,7.36,8.54,5.59S311,204.17,308,200s-11.48-10.3-13.25-13.53-8.53-5.89-8.53-5.89-21.78-11.18-26.49-14.42-5.89-5-5.89-5S266,147.07,268.31,135s-8.25-20.6-8.25-20.6" style="fill: #5F5074; transform-origin: 265.923px 161.676px;" id="elcvb4ctxomch" class="animable"></path><path d="M302.12,209.45a6.54,6.54,0,0,1-3.58-1.18c-2.05-1.35-3.66-3.67-3.66-5.28,0-2.26,0-5.68-1.62-7.3s-4.93-8.06-5.58-9.34c-2.56-.57-25.71-5.72-39.78-8.48-15.41-3-21.87-6.7-24.34-8.63-.26-.2-1.06-.82-.77-1.51s1.59-.81,3.05-.74c-.94-.67-2.14-1.58-3.18-2.47-.59-.51-.57-.92-.45-1.18.21-.48,1.1-.69,2.66-.68a12.2,12.2,0,0,1-1.56-.74.75.75,0,0,1-.4-.64c0-.53.53-.86,1.59-1.53,2.38-1.49,6.82-4.27,8-10.71,1.72-9.49-1.73-22-1.76-22.14l1-.27c.15.52,3.55,12.87,1.78,22.59-1.25,6.88-6.12,9.92-8.45,11.38-.34.21-.7.44-.93.61a38.45,38.45,0,0,0,4.91,1.86l-.22,1a23,23,0,0,0-5.5-.3l0,0a55.17,55.17,0,0,0,4.66,3.49l1.8,1.21-2.15-.29a11.58,11.58,0,0,0-3.82-.06,2.23,2.23,0,0,0,.37.34c2.41,1.87,8.71,5.46,23.92,8.44,14.85,2.91,39.79,8.48,40,8.54l.24,0,.1.21c0,.08,3.81,7.6,5.5,9.29,1.91,1.91,1.91,5.58,1.91,8,0,1.12,1.29,3.18,3.21,4.45a4.86,4.86,0,0,0,4.63.68c2.83-1.21,4.47-2.59,4.9-4.1a4.36,4.36,0,0,0-1-3.68,53.34,53.34,0,0,0-6.75-6.81c-2.87-2.59-5.58-5-6.52-6.78-1.66-3-8.22-5.64-8.28-5.66-.94-.48-21.91-11.26-26.59-14.48s-6-5.06-6-5.14l-.21-.31.24-.29c.12-.14,12-14.17,14.31-26,2.27-11.63-8-20-8.06-20.12l.63-.78c.11.09,10.8,8.87,8.42,21.09-2.19,11.2-12.44,23.9-14.27,26.1a28.71,28.71,0,0,0,5.52,4.59c4.63,3.18,26.22,14.27,26.44,14.39s6.91,2.73,8.74,6.09c.87,1.59,3.64,4.1,6.32,6.52a53.82,53.82,0,0,1,6.9,7,5.31,5.31,0,0,1,1.13,4.54c-.52,1.84-2.3,3.39-5.46,4.75A5.11,5.11,0,0,1,302.12,209.45Z" style="fill: rgb(38, 50, 56); transform-origin: 265.916px 161.685px;" id="el47rgrj5w03d" class="animable"></path><path d="M294.79,186.51c-1.76-3.24-8.53-5.89-8.53-5.89s-4-2.06-9-4.68a7.27,7.27,0,0,0-3.42,5.1c-.08.6-.12,1.18-.14,1.73,8.09,1.76,14.3,3.15,14.3,3.15s3.83,7.65,5.6,9.42,1.76,5.29,1.76,7.65,4.42,7.36,8.54,5.59S311,204.17,308,200,296.56,189.74,294.79,186.51Z" style="fill: rgb(255, 255, 255); transform-origin: 291.46px 192.446px;" id="elo5659zfeo8b" class="animable"></path><path d="M302.12,209.45a6.54,6.54,0,0,1-3.58-1.18c-2.05-1.35-3.66-3.67-3.66-5.28,0-2.26,0-5.68-1.62-7.3s-4.93-8.06-5.58-9.34c-1.19-.26-6.89-1.53-14.07-3.09l-.41-.09,0-.42c0-.64.07-1.22.14-1.78a7.71,7.71,0,0,1,3.65-5.45l.25-.15.25.13c5,2.61,9,4.67,9,4.68.23.09,6.91,2.73,8.74,6.09.87,1.59,3.64,4.1,6.32,6.52a53.82,53.82,0,0,1,6.9,7,5.31,5.31,0,0,1,1.13,4.54c-.52,1.84-2.3,3.39-5.46,4.75A5.11,5.11,0,0,1,302.12,209.45Zm-27.88-27.08c7.89,1.72,13.89,3.06,13.89,3.06l.24,0,.1.21c0,.08,3.81,7.6,5.5,9.29,1.91,1.91,1.91,5.58,1.91,8,0,1.12,1.29,3.18,3.21,4.45a4.86,4.86,0,0,0,4.63.68c2.83-1.21,4.47-2.59,4.9-4.1a4.36,4.36,0,0,0-1-3.68,53.34,53.34,0,0,0-6.75-6.81c-2.87-2.59-5.58-5-6.52-6.78-1.66-3.05-8.22-5.64-8.28-5.66s-3.93-2-8.77-4.57a6.62,6.62,0,0,0-2.95,4.58C274.3,181.51,274.27,181.93,274.24,182.37Z" style="fill: rgb(38, 50, 56); transform-origin: 291.45px 192.41px;" id="el5yi9h1hau3e" class="animable"></path><path d="M302.26,209.31l-.45-.89a1.72,1.72,0,0,0,.71-1,4.61,4.61,0,0,0-.14-3.09c-.68-1.24-2.3-5.14-2.37-5.3l.92-.39s1.67,4,2.32,5.21a5.52,5.52,0,0,1,.23,3.87A2.62,2.62,0,0,1,302.26,209.31Z" style="fill: rgb(38, 50, 56); transform-origin: 301.868px 203.975px;" id="elpj4o5q1ccao" class="animable"></path><path d="M307.33,207.29l-.75-.66c.73-.82.12-2.39-.51-3.57-.77-1.42-2.87-4.63-2.89-4.66l.84-.55c.09.13,2.14,3.28,2.93,4.74C308.09,204.71,308.22,206.29,307.33,207.29Z" style="fill: rgb(38, 50, 56); transform-origin: 305.547px 202.57px;" id="elh7ao80f42ji" class="animable"></path><path d="M206.61,211.41s2.13,10.73-6.46,44.41c-5.1,20-19.51,34.44-26.85,53.21-10.77,27.53-10.13,60,.74,88.69,8.59,22.66,24.86,42.81,45.72,53,24.06,11.76,51.44,9.49,76.34,3.26s48.91-16.17,74.5-19.16c9.5-1.11,19.37-1.22,28.66,2s18,10.27,21.74,20c.84-16.59-3.5-34-13.23-47.6-10.72-15-27-24.39-43.42-30.8-18.53-7.23-37.84-11.26-57.15-13.7-19-2.41-39-1-57.72-5.48s-40.43-17.1-43.8-39.25c-3.43-22.55,8.47-45.19,10.09-67.24,1.85-25.08-.41-41.18-.41-41.18" style="fill: #5F5074; transform-origin: 293.324px 335.256px;" id="el6em59ukf4wl" class="animable"></path><path d="M258.64,459.59c-14.66,0-27.61-2.8-39.1-8.42-20.11-9.83-36.86-29.24-46-53.27-11.13-29.36-11.4-61.82-.75-89,3.2-8.18,7.79-15.63,12.23-22.84,5.77-9.37,11.73-19.05,14.6-30.31,8.44-33.11,6.48-44.09,6.46-44.19l1-.2c.09.45,2.05,11.22-6.47,44.64-2.91,11.41-8.91,21.15-14.71,30.58-4.42,7.17-9,14.59-12.15,22.68-10.57,27-10.3,59.2.74,88.34,9,23.79,25.59,43,45.47,52.72,20.25,9.9,45.11,11,76,3.22,8.68-2.17,17.39-4.84,25.82-7.41,15.75-4.82,32-9.81,48.74-11.76,7.4-.86,18.44-1.6,28.89,2.05,9.5,3.31,17.26,10,21.15,18.18.37-16.42-4.4-32.74-13.22-45.07-9.19-12.85-23.32-22.87-43.19-30.63-16.46-6.42-35.12-10.89-57-13.67-7.48-.94-15.26-1.31-22.78-1.67-11.62-.54-23.63-1.11-35-3.81-19.14-4.54-40.79-17.35-44.19-39.67-2.08-13.67,1.47-27.49,4.9-40.86,2.24-8.73,4.55-17.75,5.19-26.49,1.83-24.74-.38-40.91-.41-41.07l1-.14c0,.16,2.25,16.44.42,41.28-.65,8.83-3,17.9-5.22,26.67-3.41,13.27-6.93,27-4.88,40.46,3.32,21.83,24.61,34.38,43.43,38.85,11.27,2.67,23.23,3.24,34.8,3.78,7.55.36,15.35.73,22.86,1.68,22,2.78,40.73,7.28,57.27,13.73,20.06,7.83,34.34,18,43.64,31s14.21,30.54,13.33,47.92l-.12,2.35-.84-2.19c-3.41-8.82-11.43-16.17-21.44-19.66-10.26-3.57-21.14-2.85-28.44-2-16.61,1.95-32.86,6.92-48.56,11.72-8.45,2.58-17.18,5.26-25.88,7.43A155.36,155.36,0,0,1,258.64,459.59Z" style="fill: rgb(38, 50, 56); transform-origin: 293.302px 335.475px;" id="elbprsx4grxk" class="animable"></path><path d="M259.58,441.71l-.15-1a43.17,43.17,0,0,0,6-1.34l.28,1A41.94,41.94,0,0,1,259.58,441.71Z" style="fill: rgb(38, 50, 56); transform-origin: 262.57px 440.54px;" id="elno1l83b0ysq" class="animable"></path><path d="M242.75,443.19a31.72,31.72,0,0,1-3.65-.28,72.51,72.51,0,0,1-19.82-5.85,33.08,33.08,0,0,1,4.95,4.18c.51.61.26,1,.13,1.12-1.34,1.36-16.62-6.14-23.37-11.47-8.15-6.43-9.08-12.82-9.12-13.09l1-.13c0,.06.95,6.28,8.75,12.44,6.54,5.16,18.45,10.7,21.53,11.41-2.49-2.6-10.12-7.57-10.2-7.62l.53-.85c.12.07,12.41,7.2,25.76,8.87,4.9.61,5.36,0,5.38,0,0-.35-1-1.16-2.41-2.09a18.1,18.1,0,0,1-3.77-2.09l-3.69-2.89,4.22,2.05a39.89,39.89,0,0,1,3.7,2,29.65,29.65,0,0,0,12.13,2.23l0,1a31.77,31.77,0,0,1-9.7-1.27,1.5,1.5,0,0,1,.46,1.33C245.4,442.72,244.89,443.19,242.75,443.19Z" style="fill: rgb(38, 50, 56); transform-origin: 223.335px 430.43px;" id="elzjhkvc0n5ro" class="animable"></path><path d="M211.48,417.61a14.19,14.19,0,0,1-4.4-1.1c-8.54-3.17-14.57-10.58-17.15-14.25.29,2,.35,4-.53,4.46s-1.55-.38-2.09-1c-3.43-3.85-8.39-17.86-8.6-18.46l.94-.33c0,.14,5.11,14.42,8.41,18.13.66.74.92.75.92.75.34-.34.12-3.07-.5-5.84l-.75-3.27,1.67,2.91c.06.12,6.85,11.81,18,15.95,4.19,1.55,4.64.91,4.64.9.34-.55-1.71-3.21-4.3-5.59l.68-.74c1.66,1.53,5.44,5.27,4.47,6.85A1.51,1.51,0,0,1,211.48,417.61Z" style="fill: rgb(38, 50, 56); transform-origin: 195.878px 402.275px;" id="el364j9tylptn" class="animable"></path><path d="M364.35,378.39l-.11,0c-11.6.36-22.37,3.13-27.46,5.85-8.16,4.38,11.81,13.62,11.81,13.62s-27.57,1.59-32.19,4,8.21,5.62,8.21,5.62-33,8.29-38.5,11.66,25.31.59,40.62,2.23S362,428.87,362,428.87s-4.73.43-30.13,4.55-36.83,3-17.21,6.4c9.83,1.69,16.11,2.52,19.93,2.93,11.83-3.45,23.75-6.5,36-7.93,9.5-1.11,19.37-1.22,28.66,2s18,10.27,21.74,20c.84-16.59-3.5-34-13.23-47.6C397.05,394.2,380.78,384.8,364.35,378.39Z" style="fill: rgb(255, 255, 255); transform-origin: 353.276px 417.605px;" id="elzclnm0c2lds" class="animable"></path><path d="M421.38,459.16l-.84-2.19c-3.41-8.82-11.43-16.17-21.44-19.66-10.26-3.57-21.14-2.85-28.44-2-13,1.53-25.47,4.86-36,7.92l-.09,0h-.1c-3.5-.37-9.8-1.19-20-2.93-9.9-1.7-10.36-2-10.34-2.83s1-1.05,8.93-2c4.64-.56,11-1.33,18.62-2.57,16.42-2.66,24.24-3.78,27.71-4.25-5.74-1.59-20.8-5.57-32.81-6.86-6.47-.7-15.72-.6-23.88-.51-12.85.15-17.4.07-17.8-1.3-.2-.69.59-1.18.85-1.34,4.8-3,29.71-9.45,36.81-11.26-3-.86-7.53-2.48-7.74-4.32-.08-.67.34-1.25,1.26-1.72,4-2.07,24.12-3.51,30.49-3.92-3.82-1.93-12.22-6.62-12.34-10.57,0-1.25.71-2.3,2.23-3.11,4.82-2.58,15.53-5.54,27.67-5.91h.1l.1,0-.07.51.18-.47c20.06,7.83,34.34,18,43.64,31s14.21,30.54,13.33,47.92Zm-39.87-25.54a54.56,54.56,0,0,1,17.92,2.75c9.5,3.31,17.26,10,21.15,18.18.37-16.42-4.4-32.74-13.22-45.07-9.19-12.85-23.32-22.87-43.19-30.63h0c-11.94.38-22.44,3.27-27.15,5.79-1.17.63-1.72,1.34-1.7,2.2.11,3.56,9.76,8.81,13.48,10.53l1.81.84-2,.11c-.28,0-27.52,1.61-32,3.92-.23.12-.77.43-.73.73.13,1.11,4.68,2.92,8.84,4l1.92.49-1.92.48c-.33.08-33,8.31-38.37,11.61a2,2,0,0,0-.33.24c1.29.73,9.48.63,16.74.56,8.19-.1,17.47-.2,24,.5,15.17,1.63,35.15,7.52,35.35,7.58l2.49.74-2.59.24s-5,.48-30.1,4.54c-7.64,1.24-14,2-18.66,2.57-3.32.4-6.28.76-7.54,1.06,1.68.53,6.32,1.33,9,1.79,10,1.73,16.29,2.54,19.8,2.92,10.49-3.07,23-6.4,36-7.93A95.34,95.34,0,0,1,381.51,433.62Zm-17.27-55v0l.1-.26Z" style="fill: rgb(38, 50, 56); transform-origin: 353.189px 418.495px;" id="elpw2qpjbnk8" class="animable"></path></g><defs>     <filter id="active" height="200%">         <feMorphology in="SourceAlpha" result="DILATED" operator="dilate" radius="2"></feMorphology>                <feFlood flood-color="#32DFEC" flood-opacity="1" result="PINK"></feFlood>        <feComposite in="PINK" in2="DILATED" operator="in" result="OUTLINE"></feComposite>        <feMerge>            <feMergeNode in="OUTLINE"></feMergeNode>            <feMergeNode in="SourceGraphic"></feMergeNode>        </feMerge>    </filter>    <filter id="hover" height="200%">        <feMorphology in="SourceAlpha" result="DILATED" operator="dilate" radius="2"></feMorphology>                <feFlood flood-color="#ff0000" flood-opacity="0.5" result="PINK"></feFlood>        <feComposite in="PINK" in2="DILATED" operator="in" result="OUTLINE"></feComposite>        <feMerge>            <feMergeNode in="OUTLINE"></feMergeNode>            <feMergeNode in="SourceGraphic"></feMergeNode>        </feMerge>            <feColorMatrix type="matrix" values="0   0   0   0   0                0   1   0   0   0                0   0   0   0   0                0   0   0   1   0 "></feColorMatrix>    </filter></defs></svg>